<svg width="45" height="45" viewBox="0 0 45 45" fill="none" xmlns="http://www.w3.org/2000/svg">
<path d="M33.1066 31.2316C31.0331 33.3052 26.2878 38.0504 23.911 40.4272C23.1299 41.2083 21.8698 41.208 21.0888 40.427C18.7502 38.0884 14.1098 33.448 11.8934 31.2316C6.03553 25.3737 6.03553 15.8763 11.8934 10.0184C17.7513 4.16053 27.2487 4.16053 33.1066 10.0184C38.9645 15.8763 38.9645 25.3737 33.1066 31.2316Z" stroke="#111827" stroke-width="3" stroke-linecap="round" stroke-linejoin="round"/>
<path d="M28.125 20.625C28.125 23.7316 25.6066 26.25 22.5 26.25C19.3934 26.25 16.875 23.7316 16.875 20.625C16.875 17.5184 19.3934 15 22.5 15C25.6066 15 28.125 17.5184 28.125 20.625Z" stroke="#111827" stroke-width="3" stroke-linecap="round" stroke-linejoin="round"/>
</svg>
