<svg width="60" height="60" viewBox="0 0 60 60" fill="none" xmlns="http://www.w3.org/2000/svg">
<path d="M22.5 42.5C22.5 48.0228 18.0228 52.5 12.5 52.5C6.97715 52.5 2.5 48.0228 2.5 42.5C2.5 36.9772 6.97715 32.5 12.5 32.5C18.0228 32.5 22.5 36.9772 22.5 42.5Z" stroke="black" stroke-width="2"/>
<path d="M57.5 42.5C57.5 48.0228 53.0228 52.5 47.5 52.5C41.9772 52.5 37.5 48.0228 37.5 42.5C37.5 36.9772 41.9772 32.5 47.5 32.5C53.0228 32.5 57.5 36.9772 57.5 42.5Z" stroke="black" stroke-width="2"/>
<path d="M30 33.75L20.7176 26.753C20.2738 26.3018 20 25.6829 20 25C20 24.3171 20.2738 23.6982 20.7176 23.247L28.3246 15.6444C28.768 15.2439 29.3555 15 30 15C30.7027 15 31.3376 15.2899 31.7918 15.7566M30 33.75V47.5M30 33.75V32.5L24.1985 26.8344L31.7918 19.2434C32.2301 18.793 32.5 18.178 32.5 17.5C32.5 16.822 32.2301 16.207 31.7918 15.7566M31.7918 15.7566C34.1112 18.8377 40.5 25 47.5 25" stroke="black" stroke-width="4"/>
<ellipse cx="38.75" cy="8.75" rx="5" ry="5" fill="black"/>
</svg>
