<svg width="40" height="40" viewBox="0 0 40 40" fill="none" xmlns="http://www.w3.org/2000/svg">
<path d="M14.9998 28.3334C14.9998 32.0153 12.0151 35.0001 8.33317 35.0001C4.65127 35.0001 1.6665 32.0153 1.6665 28.3334C1.6665 24.6515 4.65127 21.6667 8.33317 21.6667C12.0151 21.6667 14.9998 24.6515 14.9998 28.3334Z" stroke="white" stroke-width="2"/>
<path d="M38.3332 28.3334C38.3332 32.0153 35.3484 35.0001 31.6665 35.0001C27.9846 35.0001 24.9998 32.0153 24.9998 28.3334C24.9998 24.6515 27.9846 21.6667 31.6665 21.6667C35.3484 21.6667 38.3332 24.6515 38.3332 28.3334Z" stroke="white" stroke-width="2"/>
<path d="M20.0002 22.5L13.8119 17.8353C13.516 17.5345 13.3335 17.1219 13.3335 16.6667C13.3335 16.2114 13.516 15.7988 13.8119 15.498L18.8833 10.4296C19.1788 10.1626 19.5705 10 20.0002 10C20.4686 10 20.8919 10.1933 21.1947 10.5044M20.0002 22.5V31.6667M20.0002 22.5V21.6667L16.1325 17.8896L21.1947 12.8289C21.4869 12.5287 21.6668 12.1187 21.6668 11.6667C21.6668 11.2146 21.4869 10.8046 21.1947 10.5044M21.1947 10.5044C22.741 12.5585 27.0002 16.6667 31.6668 16.6667" stroke="white" stroke-width="4"/>
<circle cx="25.8333" cy="5.83333" r="3.33333" fill="white"/>
</svg>
