<?xml version="1.0" encoding="utf-8"?><svg version="1.1" id="Layer_1" xmlns="http://www.w3.org/2000/svg" xmlns:xlink="http://www.w3.org/1999/xlink" x="0px" y="0px" viewBox="0 0 122.88 99.97" style="enable-background:new 0 0 122.88 99.97" xml:space="preserve"><style type="text/css"><![CDATA[
	.st0{fill-rule:evenodd;clip-rule:evenodd;}
]]></style><g><path class="st0" d="M81.5,54.86c-17.01,0-24.95,0-41.95,0c-0.26,0-0.46,0.21-0.46,0.46v7.95c0,0.26,0.21,0.46,0.46,0.46 c8.88,0,8.29,0,17.19,0v31.49c0,0.34,0.28,0.62,0.62,0.62h0.24h6.54h0.25c0.34,0,0.62-0.28,0.62-0.62V63.74c5.87,0,10.64,0,16.51,0 c0.25,0,0.46-0.21,0.46-0.46v-7.95C81.96,55.08,81.76,54.86,81.5,54.86L81.5,54.86z M119.05,95.34c-0.04-0.29-0.16-0.56-0.38-0.78 c-1.61-1.63-3.65-2.95-5.98-3.86c-1.62-0.63-3.4-1.06-5.26-1.25l0.35-2.04h12.65c1.31,0,2.4-1.08,2.4-2.4 c0-9.93-2.34-18.56,0-29.87c0.69-3.35-6.22-3.83-6.22,0.18v25.45H92.69c-2.14,0-2.4,4.49-2.4,6.12c0,0.29,0.24,0.53,0.53,0.53 h12.69l0.49,1.98c-1.97,0.13-3.84,0.53-5.58,1.16c-2.23,0.81-4.2,2.01-5.81,3.47c-0.38,0.35-0.52,0.87-0.4,1.34 c-0.62,0.46-1.02,0.92-1.02,2.05s1.14,2.55,2.55,2.55s2.55-1.42,2.55-2.55s-0.41-1.59-1.04-2.06c1.19-0.92,2.58-1.69,4.1-2.25 c1.63-0.6,3.44-0.96,5.35-1.02l0.28,2.76l0.01,0.12c-1.07,0.3-1.87,1.16-1.87,2.46s1.14,2.55,2.55,2.55c1.4,0,2.55-1.26,2.55-2.55 s-0.78-2.15-1.85-2.45l0.01-0.13l0.2-2.73c1.82,0.12,3.54,0.51,5.11,1.12h0.01c1.53,0.59,2.9,1.39,4.07,2.37 c-0.47,0.46-0.76,0.76-0.76,1.82s1.14,2.55,2.55,2.55c1.41,0,2.55-1.42,2.55-2.55C120.11,96.27,119.69,95.8,119.05,95.34 L119.05,95.34L119.05,95.34z M102.04,17.56c-5.79,0-10.49,4.7-10.49,10.49c0,5.79,4.7,10.49,10.49,10.49s10.49-4.7,10.49-10.49 C112.52,22.26,107.83,17.56,102.04,17.56L102.04,17.56L102.04,17.56z M89.85,67.06h-9.62c-2.87,0-5.22,2.34-5.22,5.22 c0,8.53,0.06,15.07,0.06,23.65l10.43,0.02v-16.3c0-2.29,0.86-1.49,3.44-1.49c6.14,0,8.28-0.03,14.4-0.03 c4.32,0,7.84-3.53,7.84-7.84V48.3c0-4.39-3.59-7.98-7.98-7.98C84.14,40.32,89.63,53.86,89.85,67.06L89.85,67.06z M3.83,95.34 c0.04-0.29,0.16-0.56,0.38-0.78c1.62-1.63,3.65-2.95,5.98-3.86c1.62-0.63,3.4-1.06,5.26-1.25l-0.35-2.04H2.45 c-1.31,0-2.4-1.08-2.4-2.4c0-9.93,2.34-18.56,0-29.87c-0.69-3.35,6.22-3.83,6.22,0.18v25.45h23.92c2.14,0,2.4,4.49,2.4,6.12 c0,0.29-0.24,0.53-0.53,0.53H19.37l-0.49,1.98c1.97,0.13,3.84,0.53,5.58,1.16c2.23,0.81,4.2,2.01,5.81,3.47 c0.38,0.35,0.52,0.87,0.4,1.34c0.62,0.46,1.02,0.92,1.02,2.05s-1.14,2.55-2.55,2.55c-1.4,0-2.55-1.42-2.55-2.55 s0.41-1.59,1.04-2.06c-1.19-0.92-2.58-1.69-4.1-2.25c-1.63-0.6-3.44-0.96-5.35-1.02l-0.28,2.76l-0.01,0.12 c1.07,0.3,1.87,1.16,1.87,2.46s-1.14,2.55-2.55,2.55c-1.4,0-2.55-1.26-2.55-2.55s0.78-2.15,1.85-2.45l-0.01-0.13l-0.2-2.73 c-1.82,0.12-3.54,0.51-5.1,1.12h-0.01c-1.52,0.59-2.9,1.39-4.07,2.37c0.47,0.46,0.76,0.76,0.76,1.82s-1.14,2.55-2.55,2.55 s-2.55-1.42-2.55-2.55C2.77,96.27,3.19,95.8,3.83,95.34L3.83,95.34L3.83,95.34z M20.31,17.56c5.79,0,10.49,4.7,10.49,10.49 c0,5.79-4.7,10.49-10.49,10.49S9.82,33.84,9.82,28.05C9.83,22.26,14.52,17.56,20.31,17.56L20.31,17.56L20.31,17.56z M31.19,67.06 h9.62c2.87,0,5.22,2.34,5.22,5.22c0,7.88-0.06,15.72-0.06,23.65l-10.43,0V79.64c0-2.29-0.86-1.49-3.44-1.49 c-6.14,0-8.28-0.03-14.4-0.03c-4.32,0-7.84-3.53-7.84-7.84V48.3c0-4.39,3.59-7.98,7.98-7.98C36.9,40.32,31.41,53.86,31.19,67.06 L31.19,67.06z M60.46,0c5.5,0,9.97,4.46,9.97,9.97c0,5.5-4.46,9.97-9.97,9.97c-5.5,0-9.97-4.46-9.97-9.97 C50.5,4.46,54.95,0,60.46,0L60.46,0L60.46,0z M45.01,29.05c-3.03,3.87-4.5,7.58-4.85,12.42c-0.43,2.92-0.83,2.61-0.77,4.49 c0.17,6.02,8.15,6.46,8.63-0.25l0.62-4.58c0.13-1.68,0.24-1.5,0.92-3.1c0.32-0.75,0.7-1.4,1.15-1.92l0.07,2.97l0,0l0.04,11.2h19.36 l0.08-11.2l0,0l0.07-2.97c0.45,0.53,0.84,1.17,1.15,1.92c0.68,1.6,0.79,1.42,0.92,3.1l0.62,4.58c0.74,6.81,8.65,5.95,8.63,0.25 c-0.01-1.88-0.34-1.57-0.78-4.49c-0.38-5.13-2.01-9.17-5.43-13.12C68.83,20.7,51.54,20.71,45.01,29.05L45.01,29.05z"/></g></svg>