<svg width="60" height="60" viewBox="0 0 60 60" fill="none" xmlns="http://www.w3.org/2000/svg">
<path fill-rule="evenodd" clip-rule="evenodd" d="M43.9016 5.625L53.2766 15C53.6249 15.3483 53.9011 15.7617 54.0896 16.2167C54.2781 16.6718 54.375 17.1595 54.375 17.652V45.9375C54.3737 46.916 54.154 47.8819 53.7319 48.7647C53.3098 49.6475 52.696 50.4249 51.9352 51.0403C51.1744 51.6557 50.2858 52.0934 49.3343 52.3217C48.3828 52.5499 47.3923 52.5628 46.4351 52.3596C44.9453 52.017 43.6178 51.1741 42.6743 49.9713C41.7307 48.7685 41.228 47.2786 41.25 45.75V31.875H35.625V48.75H39.375V52.5H3.75V48.75H7.5V9.375C7.5 8.87772 7.69754 8.40081 8.04918 8.04918C8.40081 7.69754 8.87772 7.5 9.375 7.5H33.75C34.2473 7.5 34.7242 7.69754 35.0758 8.04918C35.4275 8.40081 35.625 8.87772 35.625 9.375V28.125H43.125C43.6223 28.125 44.0992 28.3225 44.4508 28.6742C44.8025 29.0258 45 29.5027 45 30V45.9375C45 46.6834 45.2963 47.3988 45.8238 47.9262C46.3512 48.4537 47.0666 48.75 47.8125 48.75C48.5584 48.75 49.2738 48.4537 49.8012 47.9262C50.3287 47.3988 50.625 46.6834 50.625 45.9375V26.25C49.6308 26.2489 48.6776 25.8534 47.9746 25.1504C47.2716 24.4474 46.8761 23.4942 46.875 22.5V13.9014L41.25 8.27644L43.9016 5.625ZM11.25 48.75H31.875V11.25H11.25V48.75ZM15 18.75H28.125V22.5H15V18.75Z" fill="black"/>
</svg>
