<svg width="35" height="28" viewBox="0 0 35 28" fill="none" xmlns="http://www.w3.org/2000/svg">
<path d="M29.414 10.1955C29.4134 10.1955 29.4129 10.1955 29.4124 10.1955H29.414ZM8.50145 8.62287C8.50257 8.62287 8.50368 8.62286 8.5048 8.62287H8.50145Z" fill="black" stroke="black" stroke-width="4"/>
<mask id="path-2-inside-1_2_288" fill="white">
<path d="M7.29199 15.1902C7.29199 14.5913 7.7705 14.1031 8.3694 14.0944C10.1764 14.0684 14.0805 14.0214 18.7299 14.0214C23.4506 14.0214 27.6495 14.0699 29.5497 14.0956C30.1483 14.1037 30.6253 14.5915 30.6253 15.1902C30.6253 15.8388 30.1065 16.3672 29.4579 16.376C27.5167 16.402 23.3761 16.4489 18.7299 16.4489C14.2282 16.4489 10.4252 16.4489 8.54793 16.4489C7.85277 16.4489 7.29199 15.8854 7.29199 15.1902Z"/>
</mask>
<path d="M29.5497 14.0956L29.6039 10.096L29.5497 14.0956ZM8.42703 18.094C10.2218 18.0682 14.1056 18.0214 18.7299 18.0214V10.0214C14.0554 10.0214 10.131 10.0686 8.31176 10.0949L8.42703 18.094ZM18.7299 18.0214C23.4259 18.0214 27.6052 18.0696 29.4954 18.0953L29.6039 10.096C27.6938 10.0701 23.4754 10.0214 18.7299 10.0214V18.0214ZM29.4042 12.3763C27.473 12.4022 23.3517 12.4489 18.7299 12.4489V20.4489C23.4005 20.4489 27.5604 20.4018 29.5116 20.3756L29.4042 12.3763ZM18.7299 12.4489C18.7211 12.4489 18.7123 12.4489 18.7035 12.4489C18.6947 12.4489 18.686 12.4489 18.6772 12.4489C18.6684 12.4489 18.6596 12.4489 18.6508 12.4489C18.6421 12.4489 18.6333 12.4489 18.6245 12.4489C18.6158 12.4489 18.607 12.4489 18.5982 12.4489C18.5895 12.4489 18.5807 12.4489 18.5719 12.4489C18.5632 12.4489 18.5544 12.4489 18.5457 12.4489C18.5369 12.4489 18.5281 12.4489 18.5194 12.4489C18.5107 12.4489 18.5019 12.4489 18.4932 12.4489C18.4844 12.4489 18.4757 12.4489 18.4669 12.4489C18.4582 12.4489 18.4495 12.4489 18.4407 12.4489C18.432 12.4489 18.4233 12.4489 18.4145 12.4489C18.4058 12.4489 18.3971 12.4489 18.3884 12.4489C18.3796 12.4489 18.3709 12.4489 18.3622 12.4489C18.3535 12.4489 18.3448 12.4489 18.3361 12.4489C18.3274 12.4489 18.3187 12.4489 18.31 12.4489C18.3012 12.4489 18.2925 12.4489 18.2838 12.4489C18.2751 12.4489 18.2664 12.4489 18.2578 12.4489C18.2491 12.4489 18.2404 12.4489 18.2317 12.4489C18.223 12.4489 18.2143 12.4489 18.2056 12.4489C18.1969 12.4489 18.1883 12.4489 18.1796 12.4489C18.1709 12.4489 18.1622 12.4489 18.1536 12.4489C18.1449 12.4489 18.1362 12.4489 18.1276 12.4489C18.1189 12.4489 18.1102 12.4489 18.1016 12.4489C18.0929 12.4489 18.0843 12.4489 18.0756 12.4489C18.067 12.4489 18.0583 12.4489 18.0497 12.4489C18.041 12.4489 18.0324 12.4489 18.0237 12.4489C18.0151 12.4489 18.0064 12.4489 17.9978 12.4489C17.9892 12.4489 17.9805 12.4489 17.9719 12.4489C17.9633 12.4489 17.9547 12.4489 17.946 12.4489C17.9374 12.4489 17.9288 12.4489 17.9202 12.4489C17.9115 12.4489 17.9029 12.4489 17.8943 12.4489C17.8857 12.4489 17.8771 12.4489 17.8685 12.4489C17.8599 12.4489 17.8513 12.4489 17.8427 12.4489C17.8341 12.4489 17.8255 12.4489 17.8169 12.4489C17.8083 12.4489 17.7997 12.4489 17.7911 12.4489C17.7825 12.4489 17.7739 12.4489 17.7654 12.4489C17.7568 12.4489 17.7482 12.4489 17.7396 12.4489C17.731 12.4489 17.7225 12.4489 17.7139 12.4489C17.7053 12.4489 17.6968 12.4489 17.6882 12.4489C17.6796 12.4489 17.6711 12.4489 17.6625 12.4489C17.654 12.4489 17.6454 12.4489 17.6368 12.4489C17.6283 12.4489 17.6197 12.4489 17.6112 12.4489C17.6027 12.4489 17.5941 12.4489 17.5856 12.4489C17.577 12.4489 17.5685 12.4489 17.56 12.4489C17.5514 12.4489 17.5429 12.4489 17.5344 12.4489C17.5258 12.4489 17.5173 12.4489 17.5088 12.4489C17.5003 12.4489 17.4917 12.4489 17.4832 12.4489C17.4747 12.4489 17.4662 12.4489 17.4577 12.4489C17.4492 12.4489 17.4407 12.4489 17.4322 12.4489C17.4237 12.4489 17.4152 12.4489 17.4067 12.4489C17.3982 12.4489 17.3897 12.4489 17.3812 12.4489C17.3727 12.4489 17.3642 12.4489 17.3557 12.4489C17.3473 12.4489 17.3388 12.4489 17.3303 12.4489C17.3218 12.4489 17.3133 12.4489 17.3049 12.4489C17.2964 12.4489 17.2879 12.4489 17.2795 12.4489C17.271 12.4489 17.2625 12.4489 17.2541 12.4489C17.2456 12.4489 17.2372 12.4489 17.2287 12.4489C17.2203 12.4489 17.2118 12.4489 17.2034 12.4489C17.1949 12.4489 17.1865 12.4489 17.178 12.4489C17.1696 12.4489 17.1612 12.4489 17.1527 12.4489C17.1443 12.4489 17.1359 12.4489 17.1274 12.4489C17.119 12.4489 17.1106 12.4489 17.1022 12.4489C17.0937 12.4489 17.0853 12.4489 17.0769 12.4489C17.0685 12.4489 17.0601 12.4489 17.0517 12.4489C17.0433 12.4489 17.0349 12.4489 17.0265 12.4489C17.0181 12.4489 17.0097 12.4489 17.0013 12.4489C16.9929 12.4489 16.9845 12.4489 16.9761 12.4489C16.9677 12.4489 16.9593 12.4489 16.951 12.4489C16.9426 12.4489 16.9342 12.4489 16.9258 12.4489C16.9174 12.4489 16.9091 12.4489 16.9007 12.4489C16.8923 12.4489 16.884 12.4489 16.8756 12.4489C16.8673 12.4489 16.8589 12.4489 16.8505 12.4489C16.8422 12.4489 16.8338 12.4489 16.8255 12.4489C16.8171 12.4489 16.8088 12.4489 16.8005 12.4489C16.7921 12.4489 16.7838 12.4489 16.7754 12.4489C16.7671 12.4489 16.7588 12.4489 16.7504 12.4489C16.7421 12.4489 16.7338 12.4489 16.7255 12.4489C16.7172 12.4489 16.7088 12.4489 16.7005 12.4489C16.6922 12.4489 16.6839 12.4489 16.6756 12.4489C16.6673 12.4489 16.659 12.4489 16.6507 12.4489C16.6424 12.4489 16.6341 12.4489 16.6258 12.4489C16.6175 12.4489 16.6092 12.4489 16.6009 12.4489C16.5926 12.4489 16.5843 12.4489 16.5761 12.4489C16.5678 12.4489 16.5595 12.4489 16.5512 12.4489C16.543 12.4489 16.5347 12.4489 16.5264 12.4489C16.5182 12.4489 16.5099 12.4489 16.5016 12.4489C16.4934 12.4489 16.4851 12.4489 16.4769 12.4489C16.4686 12.4489 16.4604 12.4489 16.4521 12.4489C16.4439 12.4489 16.4356 12.4489 16.4274 12.4489C16.4192 12.4489 16.4109 12.4489 16.4027 12.4489C16.3945 12.4489 16.3862 12.4489 16.378 12.4489C16.3698 12.4489 16.3616 12.4489 16.3533 12.4489C16.3451 12.4489 16.3369 12.4489 16.3287 12.4489C16.3205 12.4489 16.3123 12.4489 16.3041 12.4489C16.2959 12.4489 16.2877 12.4489 16.2795 12.4489C16.2713 12.4489 16.2631 12.4489 16.2549 12.4489C16.2467 12.4489 16.2385 12.4489 16.2303 12.4489C16.2222 12.4489 16.214 12.4489 16.2058 12.4489C16.1976 12.4489 16.1895 12.4489 16.1813 12.4489C16.1731 12.4489 16.165 12.4489 16.1568 12.4489C16.1486 12.4489 16.1405 12.4489 16.1323 12.4489C16.1242 12.4489 16.116 12.4489 16.1079 12.4489C16.0997 12.4489 16.0916 12.4489 16.0834 12.4489C16.0753 12.4489 16.0672 12.4489 16.059 12.4489C16.0509 12.4489 16.0428 12.4489 16.0347 12.4489C16.0265 12.4489 16.0184 12.4489 16.0103 12.4489C16.0022 12.4489 15.9941 12.4489 15.986 12.4489C15.9778 12.4489 15.9697 12.4489 15.9616 12.4489C15.9535 12.4489 15.9454 12.4489 15.9373 12.4489C15.9292 12.4489 15.9212 12.4489 15.9131 12.4489C15.905 12.4489 15.8969 12.4489 15.8888 12.4489C15.8807 12.4489 15.8727 12.4489 15.8646 12.4489C15.8565 12.4489 15.8484 12.4489 15.8404 12.4489C15.8323 12.4489 15.8242 12.4489 15.8162 12.4489C15.8081 12.4489 15.8001 12.4489 15.792 12.4489C15.784 12.4489 15.7759 12.4489 15.7679 12.4489C15.7598 12.4489 15.7518 12.4489 15.7438 12.4489C15.7357 12.4489 15.7277 12.4489 15.7197 12.4489C15.7116 12.4489 15.7036 12.4489 15.6956 12.4489C15.6876 12.4489 15.6795 12.4489 15.6715 12.4489C15.6635 12.4489 15.6555 12.4489 15.6475 12.4489C15.6395 12.4489 15.6315 12.4489 15.6235 12.4489C15.6155 12.4489 15.6075 12.4489 15.5995 12.4489C15.5915 12.4489 15.5835 12.4489 15.5756 12.4489C15.5676 12.4489 15.5596 12.4489 15.5516 12.4489C15.5436 12.4489 15.5357 12.4489 15.5277 12.4489C15.5197 12.4489 15.5118 12.4489 15.5038 12.4489C15.4958 12.4489 15.4879 12.4489 15.4799 12.4489C15.472 12.4489 15.464 12.4489 15.4561 12.4489C15.4481 12.4489 15.4402 12.4489 15.4323 12.4489C15.4243 12.4489 15.4164 12.4489 15.4085 12.4489C15.4005 12.4489 15.3926 12.4489 15.3847 12.4489C15.3768 12.4489 15.3689 12.4489 15.3609 12.4489C15.353 12.4489 15.3451 12.4489 15.3372 12.4489C15.3293 12.4489 15.3214 12.4489 15.3135 12.4489C15.3056 12.4489 15.2977 12.4489 15.2898 12.4489C15.2819 12.4489 15.274 12.4489 15.2662 12.4489C15.2583 12.4489 15.2504 12.4489 15.2425 12.4489C15.2346 12.4489 15.2268 12.4489 15.2189 12.4489C15.211 12.4489 15.2032 12.4489 15.1953 12.4489C15.1875 12.4489 15.1796 12.4489 15.1718 12.4489C15.1639 12.4489 15.1561 12.4489 15.1482 12.4489C15.1404 12.4489 15.1325 12.4489 15.1247 12.4489C15.1169 12.4489 15.109 12.4489 15.1012 12.4489C15.0934 12.4489 15.0856 12.4489 15.0777 12.4489C15.0699 12.4489 15.0621 12.4489 15.0543 12.4489C15.0465 12.4489 15.0387 12.4489 15.0309 12.4489C15.0231 12.4489 15.0153 12.4489 15.0075 12.4489C14.9997 12.4489 14.9919 12.4489 14.9841 12.4489C14.9763 12.4489 14.9685 12.4489 14.9607 12.4489C14.953 12.4489 14.9452 12.4489 14.9374 12.4489C14.9297 12.4489 14.9219 12.4489 14.9141 12.4489C14.9064 12.4489 14.8986 12.4489 14.8908 12.4489C14.8831 12.4489 14.8753 12.4489 14.8676 12.4489C14.8598 12.4489 14.8521 12.4489 14.8444 12.4489C14.8366 12.4489 14.8289 12.4489 14.8212 12.4489C14.8134 12.4489 14.8057 12.4489 14.798 12.4489C14.7903 12.4489 14.7825 12.4489 14.7748 12.4489C14.7671 12.4489 14.7594 12.4489 14.7517 12.4489C14.744 12.4489 14.7363 12.4489 14.7286 12.4489C14.7209 12.4489 14.7132 12.4489 14.7055 12.4489C14.6978 12.4489 14.6901 12.4489 14.6825 12.4489C14.6748 12.4489 14.6671 12.4489 14.6594 12.4489C14.6518 12.4489 14.6441 12.4489 14.6364 12.4489C14.6288 12.4489 14.6211 12.4489 14.6135 12.4489C14.6058 12.4489 14.5981 12.4489 14.5905 12.4489C14.5829 12.4489 14.5752 12.4489 14.5676 12.4489C14.5599 12.4489 14.5523 12.4489 14.5447 12.4489C14.537 12.4489 14.5294 12.4489 14.5218 12.4489C14.5142 12.4489 14.5065 12.4489 14.4989 12.4489C14.4913 12.4489 14.4837 12.4489 14.4761 12.4489C14.4685 12.4489 14.4609 12.4489 14.4533 12.4489C14.4457 12.4489 14.4381 12.4489 14.4305 12.4489C14.4229 12.4489 14.4154 12.4489 14.4078 12.4489C14.4002 12.4489 14.3926 12.4489 14.3851 12.4489C14.3775 12.4489 14.3699 12.4489 14.3624 12.4489C14.3548 12.4489 14.3472 12.4489 14.3397 12.4489C14.3321 12.4489 14.3246 12.4489 14.317 12.4489C14.3095 12.4489 14.3019 12.4489 14.2944 12.4489C14.2869 12.4489 14.2793 12.4489 14.2718 12.4489C14.2643 12.4489 14.2568 12.4489 14.2492 12.4489C14.2417 12.4489 14.2342 12.4489 14.2267 12.4489C14.2192 12.4489 14.2117 12.4489 14.2042 12.4489C14.1967 12.4489 14.1892 12.4489 14.1817 12.4489C14.1742 12.4489 14.1667 12.4489 14.1592 12.4489C14.1517 12.4489 14.1442 12.4489 14.1368 12.4489C14.1293 12.4489 14.1218 12.4489 14.1144 12.4489C14.1069 12.4489 14.0994 12.4489 14.092 12.4489C14.0845 12.4489 14.0771 12.4489 14.0696 12.4489C14.0622 12.4489 14.0547 12.4489 14.0473 12.4489C14.0398 12.4489 14.0324 12.4489 14.025 12.4489C14.0175 12.4489 14.0101 12.4489 14.0027 12.4489C13.9953 12.4489 13.9878 12.4489 13.9804 12.4489C13.973 12.4489 13.9656 12.4489 13.9582 12.4489C13.9508 12.4489 13.9434 12.4489 13.936 12.4489C13.9286 12.4489 13.9212 12.4489 13.9138 12.4489C13.9064 12.4489 13.899 12.4489 13.8917 12.4489C13.8843 12.4489 13.8769 12.4489 13.8695 12.4489C13.8622 12.4489 13.8548 12.4489 13.8475 12.4489C13.8401 12.4489 13.8327 12.4489 13.8254 12.4489C13.818 12.4489 13.8107 12.4489 13.8033 12.4489C13.796 12.4489 13.7887 12.4489 13.7813 12.4489C13.774 12.4489 13.7667 12.4489 13.7593 12.4489C13.752 12.4489 13.7447 12.4489 13.7374 12.4489C13.7301 12.4489 13.7228 12.4489 13.7154 12.4489C13.7081 12.4489 13.7008 12.4489 13.6935 12.4489C13.6862 12.4489 13.679 12.4489 13.6717 12.4489C13.6644 12.4489 13.6571 12.4489 13.6498 12.4489C13.6425 12.4489 13.6353 12.4489 13.628 12.4489C13.6207 12.4489 13.6135 12.4489 13.6062 12.4489C13.5989 12.4489 13.5917 12.4489 13.5844 12.4489C13.5772 12.4489 13.5699 12.4489 13.5627 12.4489C13.5554 12.4489 13.5482 12.4489 13.541 12.4489C13.5337 12.4489 13.5265 12.4489 13.5193 12.4489C13.5121 12.4489 13.5048 12.4489 13.4976 12.4489C13.4904 12.4489 13.4832 12.4489 13.476 12.4489C13.4688 12.4489 13.4616 12.4489 13.4544 12.4489C13.4472 12.4489 13.44 12.4489 13.4328 12.4489C13.4256 12.4489 13.4185 12.4489 13.4113 12.4489C13.4041 12.4489 13.3969 12.4489 13.3898 12.4489C13.3826 12.4489 13.3754 12.4489 13.3683 12.4489C13.3611 12.4489 13.354 12.4489 13.3468 12.4489C13.3397 12.4489 13.3325 12.4489 13.3254 12.4489C13.3182 12.4489 13.3111 12.4489 13.304 12.4489C13.2968 12.4489 13.2897 12.4489 13.2826 12.4489C13.2755 12.4489 13.2684 12.4489 13.2613 12.4489C13.2541 12.4489 13.247 12.4489 13.2399 12.4489C13.2328 12.4489 13.2257 12.4489 13.2186 12.4489C13.2116 12.4489 13.2045 12.4489 13.1974 12.4489C13.1903 12.4489 13.1832 12.4489 13.1761 12.4489C13.1691 12.4489 13.162 12.4489 13.1549 12.4489C13.1479 12.4489 13.1408 12.4489 13.1338 12.4489C13.1267 12.4489 13.1197 12.4489 13.1126 12.4489C13.1056 12.4489 13.0985 12.4489 13.0915 12.4489C13.0845 12.4489 13.0774 12.4489 13.0704 12.4489C13.0634 12.4489 13.0564 12.4489 13.0493 12.4489C13.0423 12.4489 13.0353 12.4489 13.0283 12.4489C13.0213 12.4489 13.0143 12.4489 13.0073 12.4489C13.0003 12.4489 12.9933 12.4489 12.9863 12.4489C12.9794 12.4489 12.9724 12.4489 12.9654 12.4489C12.9584 12.4489 12.9514 12.4489 12.9445 12.4489C12.9375 12.4489 12.9305 12.4489 12.9236 12.4489C12.9166 12.4489 12.9097 12.4489 12.9027 12.4489C12.8958 12.4489 12.8888 12.4489 12.8819 12.4489C12.875 12.4489 12.868 12.4489 12.8611 12.4489C12.8542 12.4489 12.8473 12.4489 12.8403 12.4489C12.8334 12.4489 12.8265 12.4489 12.8196 12.4489C12.8127 12.4489 12.8058 12.4489 12.7989 12.4489C12.792 12.4489 12.7851 12.4489 12.7782 12.4489C12.7713 12.4489 12.7644 12.4489 12.7576 12.4489C12.7507 12.4489 12.7438 12.4489 12.7369 12.4489C12.7301 12.4489 12.7232 12.4489 12.7164 12.4489C12.7095 12.4489 12.7026 12.4489 12.6958 12.4489C12.6889 12.4489 12.6821 12.4489 12.6753 12.4489C12.6684 12.4489 12.6616 12.4489 12.6548 12.4489C12.6479 12.4489 12.6411 12.4489 12.6343 12.4489C12.6275 12.4489 12.6207 12.4489 12.6138 12.4489C12.607 12.4489 12.6002 12.4489 12.5934 12.4489C12.5866 12.4489 12.5798 12.4489 12.5731 12.4489C12.5663 12.4489 12.5595 12.4489 12.5527 12.4489C12.5459 12.4489 12.5392 12.4489 12.5324 12.4489C12.5256 12.4489 12.5189 12.4489 12.5121 12.4489C12.5053 12.4489 12.4986 12.4489 12.4918 12.4489C12.4851 12.4489 12.4783 12.4489 12.4716 12.4489C12.4649 12.4489 12.4581 12.4489 12.4514 12.4489C12.4447 12.4489 12.438 12.4489 12.4312 12.4489C12.4245 12.4489 12.4178 12.4489 12.4111 12.4489C12.4044 12.4489 12.3977 12.4489 12.391 12.4489C12.3843 12.4489 12.3776 12.4489 12.3709 12.4489C12.3642 12.4489 12.3576 12.4489 12.3509 12.4489C12.3442 12.4489 12.3375 12.4489 12.3309 12.4489C12.3242 12.4489 12.3175 12.4489 12.3109 12.4489C12.3042 12.4489 12.2976 12.4489 12.2909 12.4489C12.2843 12.4489 12.2776 12.4489 12.271 12.4489C12.2644 12.4489 12.2577 12.4489 12.2511 12.4489C12.2445 12.4489 12.2379 12.4489 12.2313 12.4489C12.2247 12.4489 12.218 12.4489 12.2114 12.4489C12.2048 12.4489 12.1982 12.4489 12.1916 12.4489C12.185 12.4489 12.1785 12.4489 12.1719 12.4489C12.1653 12.4489 12.1587 12.4489 12.1521 12.4489C12.1456 12.4489 12.139 12.4489 12.1324 12.4489C12.1259 12.4489 12.1193 12.4489 12.1128 12.4489C12.1062 12.4489 12.0997 12.4489 12.0931 12.4489C12.0866 12.4489 12.0801 12.4489 12.0735 12.4489C12.067 12.4489 12.0605 12.4489 12.0539 12.4489C12.0474 12.4489 12.0409 12.4489 12.0344 12.4489C12.0279 12.4489 12.0214 12.4489 12.0149 12.4489C12.0084 12.4489 12.0019 12.4489 11.9954 12.4489C11.9889 12.4489 11.9824 12.4489 11.976 12.4489C11.9695 12.4489 11.963 12.4489 11.9565 12.4489C11.9501 12.4489 11.9436 12.4489 11.9372 12.4489C11.9307 12.4489 11.9243 12.4489 11.9178 12.4489C11.9114 12.4489 11.9049 12.4489 11.8985 12.4489C11.8921 12.4489 11.8856 12.4489 11.8792 12.4489C11.8728 12.4489 11.8664 12.4489 11.8599 12.4489C11.8535 12.4489 11.8471 12.4489 11.8407 12.4489C11.8343 12.4489 11.8279 12.4489 11.8215 12.4489C11.8151 12.4489 11.8087 12.4489 11.8024 12.4489C11.796 12.4489 11.7896 12.4489 11.7832 12.4489C11.7769 12.4489 11.7705 12.4489 11.7641 12.4489C11.7578 12.4489 11.7514 12.4489 11.7451 12.4489C11.7387 12.4489 11.7324 12.4489 11.726 12.4489C11.7197 12.4489 11.7134 12.4489 11.7071 12.4489C11.7007 12.4489 11.6944 12.4489 11.6881 12.4489C11.6818 12.4489 11.6755 12.4489 11.6692 12.4489C11.6628 12.4489 11.6565 12.4489 11.6503 12.4489C11.644 12.4489 11.6377 12.4489 11.6314 12.4489C11.6251 12.4489 11.6188 12.4489 11.6126 12.4489C11.6063 12.4489 11.6 12.4489 11.5938 12.4489C11.5875 12.4489 11.5812 12.4489 11.575 12.4489C11.5687 12.4489 11.5625 12.4489 11.5563 12.4489C11.55 12.4489 11.5438 12.4489 11.5376 12.4489C11.5313 12.4489 11.5251 12.4489 11.5189 12.4489C11.5127 12.4489 11.5065 12.4489 11.5002 12.4489C11.494 12.4489 11.4878 12.4489 11.4816 12.4489C11.4755 12.4489 11.4693 12.4489 11.4631 12.4489C11.4569 12.4489 11.4507 12.4489 11.4445 12.4489C11.4384 12.4489 11.4322 12.4489 11.426 12.4489C11.4199 12.4489 11.4137 12.4489 11.4076 12.4489C11.4014 12.4489 11.3953 12.4489 11.3891 12.4489C11.383 12.4489 11.3769 12.4489 11.3707 12.4489C11.3646 12.4489 11.3585 12.4489 11.3524 12.4489C11.3463 12.4489 11.3401 12.4489 11.334 12.4489C11.3279 12.4489 11.3218 12.4489 11.3157 12.4489C11.3096 12.4489 11.3036 12.4489 11.2975 12.4489C11.2914 12.4489 11.2853 12.4489 11.2792 12.4489C11.2732 12.4489 11.2671 12.4489 11.261 12.4489C11.255 12.4489 11.2489 12.4489 11.2429 12.4489C11.2368 12.4489 11.2308 12.4489 11.2247 12.4489C11.2187 12.4489 11.2127 12.4489 11.2067 12.4489C11.2006 12.4489 11.1946 12.4489 11.1886 12.4489C11.1826 12.4489 11.1766 12.4489 11.1706 12.4489C11.1646 12.4489 11.1586 12.4489 11.1526 12.4489C11.1466 12.4489 11.1406 12.4489 11.1346 12.4489C11.1286 12.4489 11.1227 12.4489 11.1167 12.4489C11.1107 12.4489 11.1048 12.4489 11.0988 12.4489C11.0928 12.4489 11.0869 12.4489 11.0809 12.4489C11.075 12.4489 11.0691 12.4489 11.0631 12.4489C11.0572 12.4489 11.0513 12.4489 11.0453 12.4489C11.0394 12.4489 11.0335 12.4489 11.0276 12.4489C11.0217 12.4489 11.0158 12.4489 11.0099 12.4489C11.004 12.4489 10.9981 12.4489 10.9922 12.4489C10.9863 12.4489 10.9804 12.4489 10.9745 12.4489C10.9687 12.4489 10.9628 12.4489 10.9569 12.4489C10.9511 12.4489 10.9452 12.4489 10.9393 12.4489C10.9335 12.4489 10.9276 12.4489 10.9218 12.4489C10.916 12.4489 10.9101 12.4489 10.9043 12.4489C10.8985 12.4489 10.8926 12.4489 10.8868 12.4489C10.881 12.4489 10.8752 12.4489 10.8694 12.4489C10.8636 12.4489 10.8578 12.4489 10.852 12.4489C10.8462 12.4489 10.8404 12.4489 10.8346 12.4489C10.8288 12.4489 10.823 12.4489 10.8173 12.4489C10.8115 12.4489 10.8057 12.4489 10.8 12.4489C10.7942 12.4489 10.7885 12.4489 10.7827 12.4489C10.777 12.4489 10.7712 12.4489 10.7655 12.4489C10.7598 12.4489 10.754 12.4489 10.7483 12.4489C10.7426 12.4489 10.7369 12.4489 10.7311 12.4489C10.7254 12.4489 10.7197 12.4489 10.714 12.4489C10.7083 12.4489 10.7026 12.4489 10.6969 12.4489C10.6913 12.4489 10.6856 12.4489 10.6799 12.4489C10.6742 12.4489 10.6685 12.4489 10.6629 12.4489C10.6572 12.4489 10.6516 12.4489 10.6459 12.4489C10.6403 12.4489 10.6346 12.4489 10.629 12.4489C10.6233 12.4489 10.6177 12.4489 10.6121 12.4489C10.6064 12.4489 10.6008 12.4489 10.5952 12.4489C10.5896 12.4489 10.584 12.4489 10.5784 12.4489C10.5728 12.4489 10.5672 12.4489 10.5616 12.4489C10.556 12.4489 10.5504 12.4489 10.5448 12.4489C10.5392 12.4489 10.5337 12.4489 10.5281 12.4489C10.5225 12.4489 10.517 12.4489 10.5114 12.4489C10.5058 12.4489 10.5003 12.4489 10.4947 12.4489C10.4892 12.4489 10.4837 12.4489 10.4781 12.4489C10.4726 12.4489 10.4671 12.4489 10.4616 12.4489C10.456 12.4489 10.4505 12.4489 10.445 12.4489C10.4395 12.4489 10.434 12.4489 10.4285 12.4489C10.423 12.4489 10.4175 12.4489 10.412 12.4489C10.4066 12.4489 10.4011 12.4489 10.3956 12.4489C10.3901 12.4489 10.3847 12.4489 10.3792 12.4489C10.3738 12.4489 10.3683 12.4489 10.3629 12.4489C10.3574 12.4489 10.352 12.4489 10.3465 12.4489C10.3411 12.4489 10.3357 12.4489 10.3302 12.4489C10.3248 12.4489 10.3194 12.4489 10.314 12.4489C10.3086 12.4489 10.3032 12.4489 10.2978 12.4489C10.2924 12.4489 10.287 12.4489 10.2816 12.4489C10.2762 12.4489 10.2709 12.4489 10.2655 12.4489C10.2601 12.4489 10.2547 12.4489 10.2494 12.4489C10.244 12.4489 10.2387 12.4489 10.2333 12.4489C10.228 12.4489 10.2226 12.4489 10.2173 12.4489C10.212 12.4489 10.2066 12.4489 10.2013 12.4489C10.196 12.4489 10.1907 12.4489 10.1854 12.4489C10.18 12.4489 10.1747 12.4489 10.1694 12.4489C10.1641 12.4489 10.1589 12.4489 10.1536 12.4489C10.1483 12.4489 10.143 12.4489 10.1377 12.4489C10.1325 12.4489 10.1272 12.4489 10.1219 12.4489C10.1167 12.4489 10.1114 12.4489 10.1062 12.4489C10.1009 12.4489 10.0957 12.4489 10.0904 12.4489C10.0852 12.4489 10.08 12.4489 10.0748 12.4489C10.0695 12.4489 10.0643 12.4489 10.0591 12.4489C10.0539 12.4489 10.0487 12.4489 10.0435 12.4489C10.0383 12.4489 10.0331 12.4489 10.0279 12.4489C10.0227 12.4489 10.0176 12.4489 10.0124 12.4489C10.0072 12.4489 10.002 12.4489 9.99689 12.4489C9.99173 12.4489 9.98658 12.4489 9.98143 12.4489C9.97628 12.4489 9.97114 12.4489 9.96601 12.4489C9.96088 12.4489 9.95575 12.4489 9.95063 12.4489C9.94551 12.4489 9.94039 12.4489 9.93528 12.4489C9.93017 12.4489 9.92507 12.4489 9.91998 12.4489C9.91488 12.4489 9.90979 12.4489 9.90471 12.4489C9.89963 12.4489 9.89455 12.4489 9.88948 12.4489C9.88441 12.4489 9.87935 12.4489 9.87429 12.4489C9.86923 12.4489 9.86418 12.4489 9.85914 12.4489C9.85409 12.4489 9.84905 12.4489 9.84402 12.4489C9.83899 12.4489 9.83397 12.4489 9.82895 12.4489C9.82393 12.4489 9.81892 12.4489 9.81391 12.4489C9.80891 12.4489 9.80391 12.4489 9.79891 12.4489C9.79392 12.4489 9.78893 12.4489 9.78395 12.4489C9.77898 12.4489 9.774 12.4489 9.76903 12.4489C9.76407 12.4489 9.75911 12.4489 9.75415 12.4489C9.7492 12.4489 9.74425 12.4489 9.73931 12.4489C9.73437 12.4489 9.72944 12.4489 9.72451 12.4489C9.71958 12.4489 9.71466 12.4489 9.70974 12.4489C9.70483 12.4489 9.69992 12.4489 9.69502 12.4489C9.69012 12.4489 9.68522 12.4489 9.68033 12.4489C9.67545 12.4489 9.67056 12.4489 9.66569 12.4489C9.66081 12.4489 9.65594 12.4489 9.65108 12.4489C9.64622 12.4489 9.64136 12.4489 9.63651 12.4489C9.63166 12.4489 9.62682 12.4489 9.62198 12.4489C9.61715 12.4489 9.61232 12.4489 9.6075 12.4489C9.60267 12.4489 9.59786 12.4489 9.59305 12.4489C9.58824 12.4489 9.58343 12.4489 9.57864 12.4489C9.57384 12.4489 9.56905 12.4489 9.56427 12.4489C9.55948 12.4489 9.55471 12.4489 9.54994 12.4489C9.54517 12.4489 9.5404 12.4489 9.53565 12.4489C9.53089 12.4489 9.52614 12.4489 9.5214 12.4489C9.51665 12.4489 9.51191 12.4489 9.50718 12.4489C9.50245 12.4489 9.49773 12.4489 9.49301 12.4489C9.4883 12.4489 9.48359 12.4489 9.47888 12.4489C9.47418 12.4489 9.46948 12.4489 9.46479 12.4489C9.4601 12.4489 9.45542 12.4489 9.45074 12.4489C9.44606 12.4489 9.44139 12.4489 9.43673 12.4489C9.43207 12.4489 9.42741 12.4489 9.42276 12.4489C9.41811 12.4489 9.41346 12.4489 9.40883 12.4489C9.40419 12.4489 9.39956 12.4489 9.39494 12.4489C9.39031 12.4489 9.3857 12.4489 9.38109 12.4489C9.37648 12.4489 9.37187 12.4489 9.36728 12.4489C9.36268 12.4489 9.35809 12.4489 9.35351 12.4489C9.34893 12.4489 9.34435 12.4489 9.33978 12.4489C9.33521 12.4489 9.33065 12.4489 9.32609 12.4489C9.32154 12.4489 9.31699 12.4489 9.31245 12.4489C9.3079 12.4489 9.30337 12.4489 9.29884 12.4489C9.29431 12.4489 9.28979 12.4489 9.28527 12.4489C9.28076 12.4489 9.27625 12.4489 9.27175 12.4489C9.26725 12.4489 9.26275 12.4489 9.25826 12.4489C9.25378 12.4489 9.24929 12.4489 9.24482 12.4489C9.24035 12.4489 9.23588 12.4489 9.23142 12.4489C9.22696 12.4489 9.2225 12.4489 9.21806 12.4489C9.21361 12.4489 9.20917 12.4489 9.20474 12.4489C9.2003 12.4489 9.19588 12.4489 9.19146 12.4489C9.18704 12.4489 9.18262 12.4489 9.17822 12.4489C9.17381 12.4489 9.16941 12.4489 9.16502 12.4489C9.16063 12.4489 9.15624 12.4489 9.15187 12.4489C9.14749 12.4489 9.14312 12.4489 9.13875 12.4489C9.13439 12.4489 9.13003 12.4489 9.12568 12.4489C9.12133 12.4489 9.11698 12.4489 9.11265 12.4489C9.10831 12.4489 9.10398 12.4489 9.09966 12.4489C9.09533 12.4489 9.09102 12.4489 9.08671 12.4489C9.0824 12.4489 9.0781 12.4489 9.0738 12.4489C9.06951 12.4489 9.06522 12.4489 9.06094 12.4489C9.05666 12.4489 9.05238 12.4489 9.04811 12.4489C9.04385 12.4489 9.03959 12.4489 9.03533 12.4489C9.03108 12.4489 9.02683 12.4489 9.02259 12.4489C9.01835 12.4489 9.01412 12.4489 9.0099 12.4489C9.00567 12.4489 9.00145 12.4489 8.99724 12.4489C8.99303 12.4489 8.98882 12.4489 8.98463 12.4489C8.98043 12.4489 8.97624 12.4489 8.97205 12.4489C8.96787 12.4489 8.96369 12.4489 8.95952 12.4489C8.95535 12.4489 8.95119 12.4489 8.94704 12.4489C8.94288 12.4489 8.93873 12.4489 8.93459 12.4489C8.93045 12.4489 8.92631 12.4489 8.92219 12.4489C8.91806 12.4489 8.91394 12.4489 8.90983 12.4489C8.90571 12.4489 8.90161 12.4489 8.89751 12.4489C8.89341 12.4489 8.88932 12.4489 8.88523 12.4489C8.88115 12.4489 8.87707 12.4489 8.873 12.4489C8.86893 12.4489 8.86486 12.4489 8.86081 12.4489C8.85675 12.4489 8.8527 12.4489 8.84866 12.4489C8.84462 12.4489 8.84058 12.4489 8.83655 12.4489C8.83252 12.4489 8.8285 12.4489 8.82449 12.4489C8.82048 12.4489 8.81647 12.4489 8.81247 12.4489C8.80847 12.4489 8.80448 12.4489 8.80049 12.4489C8.79651 12.4489 8.79253 12.4489 8.78856 12.4489C8.78459 12.4489 8.78062 12.4489 8.77667 12.4489C8.77271 12.4489 8.76876 12.4489 8.76482 12.4489C8.76087 12.4489 8.75694 12.4489 8.75301 12.4489C8.74908 12.4489 8.74516 12.4489 8.74125 12.4489C8.73734 12.4489 8.73343 12.4489 8.72953 12.4489C8.72563 12.4489 8.72174 12.4489 8.71785 12.4489C8.71397 12.4489 8.71009 12.4489 8.70622 12.4489C8.70235 12.4489 8.69849 12.4489 8.69463 12.4489C8.69077 12.4489 8.68693 12.4489 8.68308 12.4489C8.67924 12.4489 8.67541 12.4489 8.67158 12.4489C8.66775 12.4489 8.66393 12.4489 8.66012 12.4489C8.65631 12.4489 8.6525 12.4489 8.64871 12.4489C8.64491 12.4489 8.64112 12.4489 8.63733 12.4489C8.63355 12.4489 8.62977 12.4489 8.626 12.4489C8.62224 12.4489 8.61847 12.4489 8.61472 12.4489C8.61097 12.4489 8.60722 12.4489 8.60348 12.4489C8.59974 12.4489 8.59601 12.4489 8.59228 12.4489C8.58856 12.4489 8.58484 12.4489 8.58113 12.4489C8.57742 12.4489 8.57371 12.4489 8.57002 12.4489C8.56632 12.4489 8.56263 12.4489 8.55895 12.4489C8.55527 12.4489 8.5516 12.4489 8.54793 12.4489V20.4489C8.5516 20.4489 8.55527 20.4489 8.55895 20.4489C8.56263 20.4489 8.56632 20.4489 8.57002 20.4489C8.57371 20.4489 8.57742 20.4489 8.58113 20.4489C8.58484 20.4489 8.58856 20.4489 8.59228 20.4489C8.59601 20.4489 8.59974 20.4489 8.60348 20.4489C8.60722 20.4489 8.61097 20.4489 8.61472 20.4489C8.61847 20.4489 8.62224 20.4489 8.626 20.4489C8.62977 20.4489 8.63355 20.4489 8.63733 20.4489C8.64112 20.4489 8.64491 20.4489 8.64871 20.4489C8.6525 20.4489 8.65631 20.4489 8.66012 20.4489C8.66393 20.4489 8.66775 20.4489 8.67158 20.4489C8.67541 20.4489 8.67924 20.4489 8.68308 20.4489C8.68693 20.4489 8.69077 20.4489 8.69463 20.4489C8.69849 20.4489 8.70235 20.4489 8.70622 20.4489C8.71009 20.4489 8.71397 20.4489 8.71785 20.4489C8.72174 20.4489 8.72563 20.4489 8.72953 20.4489C8.73343 20.4489 8.73734 20.4489 8.74125 20.4489C8.74516 20.4489 8.74908 20.4489 8.75301 20.4489C8.75694 20.4489 8.76087 20.4489 8.76482 20.4489C8.76876 20.4489 8.77271 20.4489 8.77667 20.4489C8.78062 20.4489 8.78459 20.4489 8.78856 20.4489C8.79253 20.4489 8.79651 20.4489 8.80049 20.4489C8.80448 20.4489 8.80847 20.4489 8.81247 20.4489C8.81647 20.4489 8.82048 20.4489 8.82449 20.4489C8.8285 20.4489 8.83252 20.4489 8.83655 20.4489C8.84058 20.4489 8.84462 20.4489 8.84866 20.4489C8.8527 20.4489 8.85675 20.4489 8.86081 20.4489C8.86486 20.4489 8.86893 20.4489 8.873 20.4489C8.87707 20.4489 8.88115 20.4489 8.88523 20.4489C8.88932 20.4489 8.89341 20.4489 8.89751 20.4489C8.90161 20.4489 8.90571 20.4489 8.90983 20.4489C8.91394 20.4489 8.91806 20.4489 8.92219 20.4489C8.92631 20.4489 8.93045 20.4489 8.93459 20.4489C8.93873 20.4489 8.94288 20.4489 8.94704 20.4489C8.95119 20.4489 8.95535 20.4489 8.95952 20.4489C8.96369 20.4489 8.96787 20.4489 8.97205 20.4489C8.97624 20.4489 8.98043 20.4489 8.98463 20.4489C8.98882 20.4489 8.99303 20.4489 8.99724 20.4489C9.00145 20.4489 9.00567 20.4489 9.0099 20.4489C9.01412 20.4489 9.01835 20.4489 9.02259 20.4489C9.02683 20.4489 9.03108 20.4489 9.03533 20.4489C9.03959 20.4489 9.04385 20.4489 9.04811 20.4489C9.05238 20.4489 9.05666 20.4489 9.06094 20.4489C9.06522 20.4489 9.06951 20.4489 9.0738 20.4489C9.0781 20.4489 9.0824 20.4489 9.08671 20.4489C9.09102 20.4489 9.09533 20.4489 9.09966 20.4489C9.10398 20.4489 9.10831 20.4489 9.11265 20.4489C9.11698 20.4489 9.12133 20.4489 9.12568 20.4489C9.13003 20.4489 9.13439 20.4489 9.13875 20.4489C9.14312 20.4489 9.14749 20.4489 9.15187 20.4489C9.15624 20.4489 9.16063 20.4489 9.16502 20.4489C9.16941 20.4489 9.17381 20.4489 9.17822 20.4489C9.18262 20.4489 9.18704 20.4489 9.19146 20.4489C9.19588 20.4489 9.2003 20.4489 9.20474 20.4489C9.20917 20.4489 9.21361 20.4489 9.21806 20.4489C9.2225 20.4489 9.22696 20.4489 9.23142 20.4489C9.23588 20.4489 9.24035 20.4489 9.24482 20.4489C9.24929 20.4489 9.25378 20.4489 9.25826 20.4489C9.26275 20.4489 9.26725 20.4489 9.27175 20.4489C9.27625 20.4489 9.28076 20.4489 9.28527 20.4489C9.28979 20.4489 9.29431 20.4489 9.29884 20.4489C9.30337 20.4489 9.3079 20.4489 9.31245 20.4489C9.31699 20.4489 9.32154 20.4489 9.32609 20.4489C9.33065 20.4489 9.33521 20.4489 9.33978 20.4489C9.34435 20.4489 9.34893 20.4489 9.35351 20.4489C9.35809 20.4489 9.36268 20.4489 9.36728 20.4489C9.37187 20.4489 9.37648 20.4489 9.38109 20.4489C9.3857 20.4489 9.39031 20.4489 9.39494 20.4489C9.39956 20.4489 9.40419 20.4489 9.40883 20.4489C9.41346 20.4489 9.41811 20.4489 9.42276 20.4489C9.42741 20.4489 9.43207 20.4489 9.43673 20.4489C9.44139 20.4489 9.44606 20.4489 9.45074 20.4489C9.45542 20.4489 9.4601 20.4489 9.46479 20.4489C9.46948 20.4489 9.47418 20.4489 9.47888 20.4489C9.48359 20.4489 9.4883 20.4489 9.49301 20.4489C9.49773 20.4489 9.50245 20.4489 9.50718 20.4489C9.51191 20.4489 9.51665 20.4489 9.5214 20.4489C9.52614 20.4489 9.53089 20.4489 9.53565 20.4489C9.5404 20.4489 9.54517 20.4489 9.54994 20.4489C9.55471 20.4489 9.55948 20.4489 9.56427 20.4489C9.56905 20.4489 9.57384 20.4489 9.57864 20.4489C9.58343 20.4489 9.58824 20.4489 9.59305 20.4489C9.59786 20.4489 9.60267 20.4489 9.6075 20.4489C9.61232 20.4489 9.61715 20.4489 9.62198 20.4489C9.62682 20.4489 9.63166 20.4489 9.63651 20.4489C9.64136 20.4489 9.64622 20.4489 9.65108 20.4489C9.65594 20.4489 9.66081 20.4489 9.66569 20.4489C9.67056 20.4489 9.67545 20.4489 9.68033 20.4489C9.68522 20.4489 9.69012 20.4489 9.69502 20.4489C9.69992 20.4489 9.70483 20.4489 9.70974 20.4489C9.71466 20.4489 9.71958 20.4489 9.72451 20.4489C9.72944 20.4489 9.73437 20.4489 9.73931 20.4489C9.74425 20.4489 9.7492 20.4489 9.75415 20.4489C9.75911 20.4489 9.76407 20.4489 9.76903 20.4489C9.774 20.4489 9.77898 20.4489 9.78395 20.4489C9.78893 20.4489 9.79392 20.4489 9.79891 20.4489C9.80391 20.4489 9.80891 20.4489 9.81391 20.4489C9.81892 20.4489 9.82393 20.4489 9.82895 20.4489C9.83397 20.4489 9.83899 20.4489 9.84402 20.4489C9.84905 20.4489 9.85409 20.4489 9.85914 20.4489C9.86418 20.4489 9.86923 20.4489 9.87429 20.4489C9.87935 20.4489 9.88441 20.4489 9.88948 20.4489C9.89455 20.4489 9.89963 20.4489 9.90471 20.4489C9.90979 20.4489 9.91488 20.4489 9.91998 20.4489C9.92507 20.4489 9.93017 20.4489 9.93528 20.4489C9.94039 20.4489 9.94551 20.4489 9.95063 20.4489C9.95575 20.4489 9.96088 20.4489 9.96601 20.4489C9.97114 20.4489 9.97628 20.4489 9.98143 20.4489C9.98658 20.4489 9.99173 20.4489 9.99689 20.4489C10.002 20.4489 10.0072 20.4489 10.0124 20.4489C10.0176 20.4489 10.0227 20.4489 10.0279 20.4489C10.0331 20.4489 10.0383 20.4489 10.0435 20.4489C10.0487 20.4489 10.0539 20.4489 10.0591 20.4489C10.0643 20.4489 10.0695 20.4489 10.0748 20.4489C10.08 20.4489 10.0852 20.4489 10.0904 20.4489C10.0957 20.4489 10.1009 20.4489 10.1062 20.4489C10.1114 20.4489 10.1167 20.4489 10.1219 20.4489C10.1272 20.4489 10.1325 20.4489 10.1377 20.4489C10.143 20.4489 10.1483 20.4489 10.1536 20.4489C10.1589 20.4489 10.1641 20.4489 10.1694 20.4489C10.1747 20.4489 10.18 20.4489 10.1854 20.4489C10.1907 20.4489 10.196 20.4489 10.2013 20.4489C10.2066 20.4489 10.212 20.4489 10.2173 20.4489C10.2226 20.4489 10.228 20.4489 10.2333 20.4489C10.2387 20.4489 10.244 20.4489 10.2494 20.4489C10.2547 20.4489 10.2601 20.4489 10.2655 20.4489C10.2709 20.4489 10.2762 20.4489 10.2816 20.4489C10.287 20.4489 10.2924 20.4489 10.2978 20.4489C10.3032 20.4489 10.3086 20.4489 10.314 20.4489C10.3194 20.4489 10.3248 20.4489 10.3302 20.4489C10.3357 20.4489 10.3411 20.4489 10.3465 20.4489C10.352 20.4489 10.3574 20.4489 10.3629 20.4489C10.3683 20.4489 10.3738 20.4489 10.3792 20.4489C10.3847 20.4489 10.3901 20.4489 10.3956 20.4489C10.4011 20.4489 10.4066 20.4489 10.412 20.4489C10.4175 20.4489 10.423 20.4489 10.4285 20.4489C10.434 20.4489 10.4395 20.4489 10.445 20.4489C10.4505 20.4489 10.456 20.4489 10.4616 20.4489C10.4671 20.4489 10.4726 20.4489 10.4781 20.4489C10.4837 20.4489 10.4892 20.4489 10.4947 20.4489C10.5003 20.4489 10.5058 20.4489 10.5114 20.4489C10.517 20.4489 10.5225 20.4489 10.5281 20.4489C10.5337 20.4489 10.5392 20.4489 10.5448 20.4489C10.5504 20.4489 10.556 20.4489 10.5616 20.4489C10.5672 20.4489 10.5728 20.4489 10.5784 20.4489C10.584 20.4489 10.5896 20.4489 10.5952 20.4489C10.6008 20.4489 10.6064 20.4489 10.6121 20.4489C10.6177 20.4489 10.6233 20.4489 10.629 20.4489C10.6346 20.4489 10.6403 20.4489 10.6459 20.4489C10.6516 20.4489 10.6572 20.4489 10.6629 20.4489C10.6685 20.4489 10.6742 20.4489 10.6799 20.4489C10.6856 20.4489 10.6913 20.4489 10.6969 20.4489C10.7026 20.4489 10.7083 20.4489 10.714 20.4489C10.7197 20.4489 10.7254 20.4489 10.7311 20.4489C10.7369 20.4489 10.7426 20.4489 10.7483 20.4489C10.754 20.4489 10.7598 20.4489 10.7655 20.4489C10.7712 20.4489 10.777 20.4489 10.7827 20.4489C10.7885 20.4489 10.7942 20.4489 10.8 20.4489C10.8057 20.4489 10.8115 20.4489 10.8173 20.4489C10.823 20.4489 10.8288 20.4489 10.8346 20.4489C10.8404 20.4489 10.8462 20.4489 10.852 20.4489C10.8578 20.4489 10.8636 20.4489 10.8694 20.4489C10.8752 20.4489 10.881 20.4489 10.8868 20.4489C10.8926 20.4489 10.8985 20.4489 10.9043 20.4489C10.9101 20.4489 10.916 20.4489 10.9218 20.4489C10.9276 20.4489 10.9335 20.4489 10.9393 20.4489C10.9452 20.4489 10.9511 20.4489 10.9569 20.4489C10.9628 20.4489 10.9687 20.4489 10.9745 20.4489C10.9804 20.4489 10.9863 20.4489 10.9922 20.4489C10.9981 20.4489 11.004 20.4489 11.0099 20.4489C11.0158 20.4489 11.0217 20.4489 11.0276 20.4489C11.0335 20.4489 11.0394 20.4489 11.0453 20.4489C11.0513 20.4489 11.0572 20.4489 11.0631 20.4489C11.0691 20.4489 11.075 20.4489 11.0809 20.4489C11.0869 20.4489 11.0928 20.4489 11.0988 20.4489C11.1048 20.4489 11.1107 20.4489 11.1167 20.4489C11.1227 20.4489 11.1286 20.4489 11.1346 20.4489C11.1406 20.4489 11.1466 20.4489 11.1526 20.4489C11.1586 20.4489 11.1646 20.4489 11.1706 20.4489C11.1766 20.4489 11.1826 20.4489 11.1886 20.4489C11.1946 20.4489 11.2006 20.4489 11.2067 20.4489C11.2127 20.4489 11.2187 20.4489 11.2247 20.4489C11.2308 20.4489 11.2368 20.4489 11.2429 20.4489C11.2489 20.4489 11.255 20.4489 11.261 20.4489C11.2671 20.4489 11.2732 20.4489 11.2792 20.4489C11.2853 20.4489 11.2914 20.4489 11.2975 20.4489C11.3036 20.4489 11.3096 20.4489 11.3157 20.4489C11.3218 20.4489 11.3279 20.4489 11.334 20.4489C11.3401 20.4489 11.3463 20.4489 11.3524 20.4489C11.3585 20.4489 11.3646 20.4489 11.3707 20.4489C11.3769 20.4489 11.383 20.4489 11.3891 20.4489C11.3953 20.4489 11.4014 20.4489 11.4076 20.4489C11.4137 20.4489 11.4199 20.4489 11.426 20.4489C11.4322 20.4489 11.4384 20.4489 11.4445 20.4489C11.4507 20.4489 11.4569 20.4489 11.4631 20.4489C11.4693 20.4489 11.4755 20.4489 11.4816 20.4489C11.4878 20.4489 11.494 20.4489 11.5002 20.4489C11.5065 20.4489 11.5127 20.4489 11.5189 20.4489C11.5251 20.4489 11.5313 20.4489 11.5376 20.4489C11.5438 20.4489 11.55 20.4489 11.5563 20.4489C11.5625 20.4489 11.5687 20.4489 11.575 20.4489C11.5812 20.4489 11.5875 20.4489 11.5938 20.4489C11.6 20.4489 11.6063 20.4489 11.6126 20.4489C11.6188 20.4489 11.6251 20.4489 11.6314 20.4489C11.6377 20.4489 11.644 20.4489 11.6503 20.4489C11.6565 20.4489 11.6628 20.4489 11.6692 20.4489C11.6755 20.4489 11.6818 20.4489 11.6881 20.4489C11.6944 20.4489 11.7007 20.4489 11.7071 20.4489C11.7134 20.4489 11.7197 20.4489 11.726 20.4489C11.7324 20.4489 11.7387 20.4489 11.7451 20.4489C11.7514 20.4489 11.7578 20.4489 11.7641 20.4489C11.7705 20.4489 11.7769 20.4489 11.7832 20.4489C11.7896 20.4489 11.796 20.4489 11.8024 20.4489C11.8087 20.4489 11.8151 20.4489 11.8215 20.4489C11.8279 20.4489 11.8343 20.4489 11.8407 20.4489C11.8471 20.4489 11.8535 20.4489 11.8599 20.4489C11.8664 20.4489 11.8728 20.4489 11.8792 20.4489C11.8856 20.4489 11.8921 20.4489 11.8985 20.4489C11.9049 20.4489 11.9114 20.4489 11.9178 20.4489C11.9243 20.4489 11.9307 20.4489 11.9372 20.4489C11.9436 20.4489 11.9501 20.4489 11.9565 20.4489C11.963 20.4489 11.9695 20.4489 11.976 20.4489C11.9824 20.4489 11.9889 20.4489 11.9954 20.4489C12.0019 20.4489 12.0084 20.4489 12.0149 20.4489C12.0214 20.4489 12.0279 20.4489 12.0344 20.4489C12.0409 20.4489 12.0474 20.4489 12.0539 20.4489C12.0605 20.4489 12.067 20.4489 12.0735 20.4489C12.0801 20.4489 12.0866 20.4489 12.0931 20.4489C12.0997 20.4489 12.1062 20.4489 12.1128 20.4489C12.1193 20.4489 12.1259 20.4489 12.1324 20.4489C12.139 20.4489 12.1456 20.4489 12.1521 20.4489C12.1587 20.4489 12.1653 20.4489 12.1719 20.4489C12.1785 20.4489 12.185 20.4489 12.1916 20.4489C12.1982 20.4489 12.2048 20.4489 12.2114 20.4489C12.218 20.4489 12.2247 20.4489 12.2313 20.4489C12.2379 20.4489 12.2445 20.4489 12.2511 20.4489C12.2577 20.4489 12.2644 20.4489 12.271 20.4489C12.2776 20.4489 12.2843 20.4489 12.2909 20.4489C12.2976 20.4489 12.3042 20.4489 12.3109 20.4489C12.3175 20.4489 12.3242 20.4489 12.3309 20.4489C12.3375 20.4489 12.3442 20.4489 12.3509 20.4489C12.3576 20.4489 12.3642 20.4489 12.3709 20.4489C12.3776 20.4489 12.3843 20.4489 12.391 20.4489C12.3977 20.4489 12.4044 20.4489 12.4111 20.4489C12.4178 20.4489 12.4245 20.4489 12.4312 20.4489C12.438 20.4489 12.4447 20.4489 12.4514 20.4489C12.4581 20.4489 12.4649 20.4489 12.4716 20.4489C12.4783 20.4489 12.4851 20.4489 12.4918 20.4489C12.4986 20.4489 12.5053 20.4489 12.5121 20.4489C12.5189 20.4489 12.5256 20.4489 12.5324 20.4489C12.5392 20.4489 12.5459 20.4489 12.5527 20.4489C12.5595 20.4489 12.5663 20.4489 12.5731 20.4489C12.5798 20.4489 12.5866 20.4489 12.5934 20.4489C12.6002 20.4489 12.607 20.4489 12.6138 20.4489C12.6207 20.4489 12.6275 20.4489 12.6343 20.4489C12.6411 20.4489 12.6479 20.4489 12.6548 20.4489C12.6616 20.4489 12.6684 20.4489 12.6753 20.4489C12.6821 20.4489 12.6889 20.4489 12.6958 20.4489C12.7026 20.4489 12.7095 20.4489 12.7164 20.4489C12.7232 20.4489 12.7301 20.4489 12.7369 20.4489C12.7438 20.4489 12.7507 20.4489 12.7576 20.4489C12.7644 20.4489 12.7713 20.4489 12.7782 20.4489C12.7851 20.4489 12.792 20.4489 12.7989 20.4489C12.8058 20.4489 12.8127 20.4489 12.8196 20.4489C12.8265 20.4489 12.8334 20.4489 12.8403 20.4489C12.8473 20.4489 12.8542 20.4489 12.8611 20.4489C12.868 20.4489 12.875 20.4489 12.8819 20.4489C12.8888 20.4489 12.8958 20.4489 12.9027 20.4489C12.9097 20.4489 12.9166 20.4489 12.9236 20.4489C12.9305 20.4489 12.9375 20.4489 12.9445 20.4489C12.9514 20.4489 12.9584 20.4489 12.9654 20.4489C12.9724 20.4489 12.9794 20.4489 12.9863 20.4489C12.9933 20.4489 13.0003 20.4489 13.0073 20.4489C13.0143 20.4489 13.0213 20.4489 13.0283 20.4489C13.0353 20.4489 13.0423 20.4489 13.0493 20.4489C13.0564 20.4489 13.0634 20.4489 13.0704 20.4489C13.0774 20.4489 13.0845 20.4489 13.0915 20.4489C13.0985 20.4489 13.1056 20.4489 13.1126 20.4489C13.1197 20.4489 13.1267 20.4489 13.1338 20.4489C13.1408 20.4489 13.1479 20.4489 13.1549 20.4489C13.162 20.4489 13.1691 20.4489 13.1761 20.4489C13.1832 20.4489 13.1903 20.4489 13.1974 20.4489C13.2045 20.4489 13.2116 20.4489 13.2186 20.4489C13.2257 20.4489 13.2328 20.4489 13.2399 20.4489C13.247 20.4489 13.2541 20.4489 13.2613 20.4489C13.2684 20.4489 13.2755 20.4489 13.2826 20.4489C13.2897 20.4489 13.2968 20.4489 13.304 20.4489C13.3111 20.4489 13.3182 20.4489 13.3254 20.4489C13.3325 20.4489 13.3397 20.4489 13.3468 20.4489C13.354 20.4489 13.3611 20.4489 13.3683 20.4489C13.3754 20.4489 13.3826 20.4489 13.3898 20.4489C13.3969 20.4489 13.4041 20.4489 13.4113 20.4489C13.4185 20.4489 13.4256 20.4489 13.4328 20.4489C13.44 20.4489 13.4472 20.4489 13.4544 20.4489C13.4616 20.4489 13.4688 20.4489 13.476 20.4489C13.4832 20.4489 13.4904 20.4489 13.4976 20.4489C13.5048 20.4489 13.5121 20.4489 13.5193 20.4489C13.5265 20.4489 13.5337 20.4489 13.541 20.4489C13.5482 20.4489 13.5554 20.4489 13.5627 20.4489C13.5699 20.4489 13.5772 20.4489 13.5844 20.4489C13.5917 20.4489 13.5989 20.4489 13.6062 20.4489C13.6135 20.4489 13.6207 20.4489 13.628 20.4489C13.6353 20.4489 13.6425 20.4489 13.6498 20.4489C13.6571 20.4489 13.6644 20.4489 13.6717 20.4489C13.679 20.4489 13.6862 20.4489 13.6935 20.4489C13.7008 20.4489 13.7081 20.4489 13.7154 20.4489C13.7228 20.4489 13.7301 20.4489 13.7374 20.4489C13.7447 20.4489 13.752 20.4489 13.7593 20.4489C13.7667 20.4489 13.774 20.4489 13.7813 20.4489C13.7887 20.4489 13.796 20.4489 13.8033 20.4489C13.8107 20.4489 13.818 20.4489 13.8254 20.4489C13.8327 20.4489 13.8401 20.4489 13.8475 20.4489C13.8548 20.4489 13.8622 20.4489 13.8695 20.4489C13.8769 20.4489 13.8843 20.4489 13.8917 20.4489C13.899 20.4489 13.9064 20.4489 13.9138 20.4489C13.9212 20.4489 13.9286 20.4489 13.936 20.4489C13.9434 20.4489 13.9508 20.4489 13.9582 20.4489C13.9656 20.4489 13.973 20.4489 13.9804 20.4489C13.9878 20.4489 13.9953 20.4489 14.0027 20.4489C14.0101 20.4489 14.0175 20.4489 14.025 20.4489C14.0324 20.4489 14.0398 20.4489 14.0473 20.4489C14.0547 20.4489 14.0622 20.4489 14.0696 20.4489C14.0771 20.4489 14.0845 20.4489 14.092 20.4489C14.0994 20.4489 14.1069 20.4489 14.1144 20.4489C14.1218 20.4489 14.1293 20.4489 14.1368 20.4489C14.1442 20.4489 14.1517 20.4489 14.1592 20.4489C14.1667 20.4489 14.1742 20.4489 14.1817 20.4489C14.1892 20.4489 14.1967 20.4489 14.2042 20.4489C14.2117 20.4489 14.2192 20.4489 14.2267 20.4489C14.2342 20.4489 14.2417 20.4489 14.2492 20.4489C14.2568 20.4489 14.2643 20.4489 14.2718 20.4489C14.2793 20.4489 14.2869 20.4489 14.2944 20.4489C14.3019 20.4489 14.3095 20.4489 14.317 20.4489C14.3246 20.4489 14.3321 20.4489 14.3397 20.4489C14.3472 20.4489 14.3548 20.4489 14.3624 20.4489C14.3699 20.4489 14.3775 20.4489 14.3851 20.4489C14.3926 20.4489 14.4002 20.4489 14.4078 20.4489C14.4154 20.4489 14.4229 20.4489 14.4305 20.4489C14.4381 20.4489 14.4457 20.4489 14.4533 20.4489C14.4609 20.4489 14.4685 20.4489 14.4761 20.4489C14.4837 20.4489 14.4913 20.4489 14.4989 20.4489C14.5065 20.4489 14.5142 20.4489 14.5218 20.4489C14.5294 20.4489 14.537 20.4489 14.5447 20.4489C14.5523 20.4489 14.5599 20.4489 14.5676 20.4489C14.5752 20.4489 14.5829 20.4489 14.5905 20.4489C14.5981 20.4489 14.6058 20.4489 14.6135 20.4489C14.6211 20.4489 14.6288 20.4489 14.6364 20.4489C14.6441 20.4489 14.6518 20.4489 14.6594 20.4489C14.6671 20.4489 14.6748 20.4489 14.6825 20.4489C14.6901 20.4489 14.6978 20.4489 14.7055 20.4489C14.7132 20.4489 14.7209 20.4489 14.7286 20.4489C14.7363 20.4489 14.744 20.4489 14.7517 20.4489C14.7594 20.4489 14.7671 20.4489 14.7748 20.4489C14.7825 20.4489 14.7903 20.4489 14.798 20.4489C14.8057 20.4489 14.8134 20.4489 14.8212 20.4489C14.8289 20.4489 14.8366 20.4489 14.8444 20.4489C14.8521 20.4489 14.8598 20.4489 14.8676 20.4489C14.8753 20.4489 14.8831 20.4489 14.8908 20.4489C14.8986 20.4489 14.9064 20.4489 14.9141 20.4489C14.9219 20.4489 14.9297 20.4489 14.9374 20.4489C14.9452 20.4489 14.953 20.4489 14.9607 20.4489C14.9685 20.4489 14.9763 20.4489 14.9841 20.4489C14.9919 20.4489 14.9997 20.4489 15.0075 20.4489C15.0153 20.4489 15.0231 20.4489 15.0309 20.4489C15.0387 20.4489 15.0465 20.4489 15.0543 20.4489C15.0621 20.4489 15.0699 20.4489 15.0777 20.4489C15.0856 20.4489 15.0934 20.4489 15.1012 20.4489C15.109 20.4489 15.1169 20.4489 15.1247 20.4489C15.1325 20.4489 15.1404 20.4489 15.1482 20.4489C15.1561 20.4489 15.1639 20.4489 15.1718 20.4489C15.1796 20.4489 15.1875 20.4489 15.1953 20.4489C15.2032 20.4489 15.211 20.4489 15.2189 20.4489C15.2268 20.4489 15.2346 20.4489 15.2425 20.4489C15.2504 20.4489 15.2583 20.4489 15.2662 20.4489C15.274 20.4489 15.2819 20.4489 15.2898 20.4489C15.2977 20.4489 15.3056 20.4489 15.3135 20.4489C15.3214 20.4489 15.3293 20.4489 15.3372 20.4489C15.3451 20.4489 15.353 20.4489 15.3609 20.4489C15.3689 20.4489 15.3768 20.4489 15.3847 20.4489C15.3926 20.4489 15.4005 20.4489 15.4085 20.4489C15.4164 20.4489 15.4243 20.4489 15.4323 20.4489C15.4402 20.4489 15.4481 20.4489 15.4561 20.4489C15.464 20.4489 15.472 20.4489 15.4799 20.4489C15.4879 20.4489 15.4958 20.4489 15.5038 20.4489C15.5118 20.4489 15.5197 20.4489 15.5277 20.4489C15.5357 20.4489 15.5436 20.4489 15.5516 20.4489C15.5596 20.4489 15.5676 20.4489 15.5756 20.4489C15.5835 20.4489 15.5915 20.4489 15.5995 20.4489C15.6075 20.4489 15.6155 20.4489 15.6235 20.4489C15.6315 20.4489 15.6395 20.4489 15.6475 20.4489C15.6555 20.4489 15.6635 20.4489 15.6715 20.4489C15.6795 20.4489 15.6876 20.4489 15.6956 20.4489C15.7036 20.4489 15.7116 20.4489 15.7197 20.4489C15.7277 20.4489 15.7357 20.4489 15.7438 20.4489C15.7518 20.4489 15.7598 20.4489 15.7679 20.4489C15.7759 20.4489 15.784 20.4489 15.792 20.4489C15.8001 20.4489 15.8081 20.4489 15.8162 20.4489C15.8242 20.4489 15.8323 20.4489 15.8404 20.4489C15.8484 20.4489 15.8565 20.4489 15.8646 20.4489C15.8727 20.4489 15.8807 20.4489 15.8888 20.4489C15.8969 20.4489 15.905 20.4489 15.9131 20.4489C15.9212 20.4489 15.9292 20.4489 15.9373 20.4489C15.9454 20.4489 15.9535 20.4489 15.9616 20.4489C15.9697 20.4489 15.9778 20.4489 15.986 20.4489C15.9941 20.4489 16.0022 20.4489 16.0103 20.4489C16.0184 20.4489 16.0265 20.4489 16.0347 20.4489C16.0428 20.4489 16.0509 20.4489 16.059 20.4489C16.0672 20.4489 16.0753 20.4489 16.0834 20.4489C16.0916 20.4489 16.0997 20.4489 16.1079 20.4489C16.116 20.4489 16.1242 20.4489 16.1323 20.4489C16.1405 20.4489 16.1486 20.4489 16.1568 20.4489C16.165 20.4489 16.1731 20.4489 16.1813 20.4489C16.1895 20.4489 16.1976 20.4489 16.2058 20.4489C16.214 20.4489 16.2222 20.4489 16.2303 20.4489C16.2385 20.4489 16.2467 20.4489 16.2549 20.4489C16.2631 20.4489 16.2713 20.4489 16.2795 20.4489C16.2877 20.4489 16.2959 20.4489 16.3041 20.4489C16.3123 20.4489 16.3205 20.4489 16.3287 20.4489C16.3369 20.4489 16.3451 20.4489 16.3533 20.4489C16.3616 20.4489 16.3698 20.4489 16.378 20.4489C16.3862 20.4489 16.3945 20.4489 16.4027 20.4489C16.4109 20.4489 16.4192 20.4489 16.4274 20.4489C16.4356 20.4489 16.4439 20.4489 16.4521 20.4489C16.4604 20.4489 16.4686 20.4489 16.4769 20.4489C16.4851 20.4489 16.4934 20.4489 16.5016 20.4489C16.5099 20.4489 16.5182 20.4489 16.5264 20.4489C16.5347 20.4489 16.543 20.4489 16.5512 20.4489C16.5595 20.4489 16.5678 20.4489 16.5761 20.4489C16.5843 20.4489 16.5926 20.4489 16.6009 20.4489C16.6092 20.4489 16.6175 20.4489 16.6258 20.4489C16.6341 20.4489 16.6424 20.4489 16.6507 20.4489C16.659 20.4489 16.6673 20.4489 16.6756 20.4489C16.6839 20.4489 16.6922 20.4489 16.7005 20.4489C16.7088 20.4489 16.7172 20.4489 16.7255 20.4489C16.7338 20.4489 16.7421 20.4489 16.7504 20.4489C16.7588 20.4489 16.7671 20.4489 16.7754 20.4489C16.7838 20.4489 16.7921 20.4489 16.8005 20.4489C16.8088 20.4489 16.8171 20.4489 16.8255 20.4489C16.8338 20.4489 16.8422 20.4489 16.8505 20.4489C16.8589 20.4489 16.8673 20.4489 16.8756 20.4489C16.884 20.4489 16.8923 20.4489 16.9007 20.4489C16.9091 20.4489 16.9174 20.4489 16.9258 20.4489C16.9342 20.4489 16.9426 20.4489 16.951 20.4489C16.9593 20.4489 16.9677 20.4489 16.9761 20.4489C16.9845 20.4489 16.9929 20.4489 17.0013 20.4489C17.0097 20.4489 17.0181 20.4489 17.0265 20.4489C17.0349 20.4489 17.0433 20.4489 17.0517 20.4489C17.0601 20.4489 17.0685 20.4489 17.0769 20.4489C17.0853 20.4489 17.0937 20.4489 17.1022 20.4489C17.1106 20.4489 17.119 20.4489 17.1274 20.4489C17.1359 20.4489 17.1443 20.4489 17.1527 20.4489C17.1612 20.4489 17.1696 20.4489 17.178 20.4489C17.1865 20.4489 17.1949 20.4489 17.2034 20.4489C17.2118 20.4489 17.2203 20.4489 17.2287 20.4489C17.2372 20.4489 17.2456 20.4489 17.2541 20.4489C17.2625 20.4489 17.271 20.4489 17.2795 20.4489C17.2879 20.4489 17.2964 20.4489 17.3049 20.4489C17.3133 20.4489 17.3218 20.4489 17.3303 20.4489C17.3388 20.4489 17.3473 20.4489 17.3557 20.4489C17.3642 20.4489 17.3727 20.4489 17.3812 20.4489C17.3897 20.4489 17.3982 20.4489 17.4067 20.4489C17.4152 20.4489 17.4237 20.4489 17.4322 20.4489C17.4407 20.4489 17.4492 20.4489 17.4577 20.4489C17.4662 20.4489 17.4747 20.4489 17.4832 20.4489C17.4917 20.4489 17.5003 20.4489 17.5088 20.4489C17.5173 20.4489 17.5258 20.4489 17.5344 20.4489C17.5429 20.4489 17.5514 20.4489 17.56 20.4489C17.5685 20.4489 17.577 20.4489 17.5856 20.4489C17.5941 20.4489 17.6027 20.4489 17.6112 20.4489C17.6197 20.4489 17.6283 20.4489 17.6368 20.4489C17.6454 20.4489 17.654 20.4489 17.6625 20.4489C17.6711 20.4489 17.6796 20.4489 17.6882 20.4489C17.6968 20.4489 17.7053 20.4489 17.7139 20.4489C17.7225 20.4489 17.731 20.4489 17.7396 20.4489C17.7482 20.4489 17.7568 20.4489 17.7654 20.4489C17.7739 20.4489 17.7825 20.4489 17.7911 20.4489C17.7997 20.4489 17.8083 20.4489 17.8169 20.4489C17.8255 20.4489 17.8341 20.4489 17.8427 20.4489C17.8513 20.4489 17.8599 20.4489 17.8685 20.4489C17.8771 20.4489 17.8857 20.4489 17.8943 20.4489C17.9029 20.4489 17.9115 20.4489 17.9202 20.4489C17.9288 20.4489 17.9374 20.4489 17.946 20.4489C17.9547 20.4489 17.9633 20.4489 17.9719 20.4489C17.9805 20.4489 17.9892 20.4489 17.9978 20.4489C18.0064 20.4489 18.0151 20.4489 18.0237 20.4489C18.0324 20.4489 18.041 20.4489 18.0497 20.4489C18.0583 20.4489 18.067 20.4489 18.0756 20.4489C18.0843 20.4489 18.0929 20.4489 18.1016 20.4489C18.1102 20.4489 18.1189 20.4489 18.1276 20.4489C18.1362 20.4489 18.1449 20.4489 18.1536 20.4489C18.1622 20.4489 18.1709 20.4489 18.1796 20.4489C18.1883 20.4489 18.1969 20.4489 18.2056 20.4489C18.2143 20.4489 18.223 20.4489 18.2317 20.4489C18.2404 20.4489 18.2491 20.4489 18.2578 20.4489C18.2664 20.4489 18.2751 20.4489 18.2838 20.4489C18.2925 20.4489 18.3012 20.4489 18.31 20.4489C18.3187 20.4489 18.3274 20.4489 18.3361 20.4489C18.3448 20.4489 18.3535 20.4489 18.3622 20.4489C18.3709 20.4489 18.3796 20.4489 18.3884 20.4489C18.3971 20.4489 18.4058 20.4489 18.4145 20.4489C18.4233 20.4489 18.432 20.4489 18.4407 20.4489C18.4495 20.4489 18.4582 20.4489 18.4669 20.4489C18.4757 20.4489 18.4844 20.4489 18.4932 20.4489C18.5019 20.4489 18.5107 20.4489 18.5194 20.4489C18.5281 20.4489 18.5369 20.4489 18.5457 20.4489C18.5544 20.4489 18.5632 20.4489 18.5719 20.4489C18.5807 20.4489 18.5895 20.4489 18.5982 20.4489C18.607 20.4489 18.6158 20.4489 18.6245 20.4489C18.6333 20.4489 18.6421 20.4489 18.6508 20.4489C18.6596 20.4489 18.6684 20.4489 18.6772 20.4489C18.686 20.4489 18.6947 20.4489 18.7035 20.4489C18.7123 20.4489 18.7211 20.4489 18.7299 20.4489V12.4489ZM8.54793 12.4489C10.0733 12.4489 11.292 13.6877 11.292 15.1902H3.29199C3.29199 18.0831 5.6322 20.4489 8.54793 20.4489V12.4489ZM29.5116 20.3756C32.3593 20.3374 34.6253 18.0158 34.6253 15.1902H26.6253C26.6253 13.6618 27.8536 12.3971 29.4042 12.3763L29.5116 20.3756ZM29.4954 18.0953C27.8861 18.0734 26.6253 16.7592 26.6253 15.1902H34.6253C34.6253 12.4238 32.4105 10.1341 29.6039 10.096L29.4954 18.0953ZM8.31176 10.0949C5.5135 10.1352 3.29199 12.4175 3.29199 15.1902H11.292C11.292 16.765 10.0275 18.071 8.42703 18.094L8.31176 10.0949Z" fill="black" mask="url(#path-2-inside-1_2_288)"/>
<path d="M29.4296 20.2749L29.428 20.2749L29.4296 20.2749Z" stroke="black" stroke-width="4"/>
<rect y="-2" width="35" height="29.6154" fill="white" fill-opacity="0.01"/>
</svg>
