<svg width="50" height="50" viewBox="0 0 50 50" fill="none" xmlns="http://www.w3.org/2000/svg">
<path d="M36.7853 34.7018C34.4356 37.0515 28.9983 42.4888 26.4138 45.0733C25.6327 45.8543 24.3687 45.8555 23.5877 45.0744C21.0448 42.5315 15.7279 37.2146 13.215 34.7018C6.70631 28.193 6.70631 17.6403 13.215 11.1316C19.7238 4.62282 30.2765 4.62282 36.7853 11.1316C43.294 17.6403 43.294 28.193 36.7853 34.7018Z" stroke="#111827" stroke-width="4" stroke-linecap="round" stroke-linejoin="round"/>
<path d="M31.2502 22.9167C31.2502 26.3684 28.4519 29.1667 25.0002 29.1667C21.5484 29.1667 18.7502 26.3684 18.7502 22.9167C18.7502 19.4649 21.5484 16.6667 25.0002 16.6667C28.4519 16.6667 31.2502 19.4649 31.2502 22.9167Z" stroke="#111827" stroke-width="4" stroke-linecap="round" stroke-linejoin="round"/>
</svg>
