<?xml version="1.0" encoding="iso-8859-1"?>
<!-- Generator: Adobe Illustrator 19.0.0, SVG Export Plug-In . SVG Version: 6.00 Build 0)  -->
<svg version="1.1" id="Layer_1" xmlns="http://www.w3.org/2000/svg" xmlns:xlink="http://www.w3.org/1999/xlink" x="0px" y="0px"
	 viewBox="0 0 485 485" style="enable-background:new 0 0 485 485;" xml:space="preserve">
<g>
	<path d="M242.5,190C180.467,190,130,240.467,130,302.5S180.467,415,242.5,415S355,364.533,355,302.5S304.533,190,242.5,190z
		 M242.5,385c-45.491,0-82.5-37.009-82.5-82.5s37.009-82.5,82.5-82.5s82.5,37.009,82.5,82.5S287.991,385,242.5,385z"/>
	<path d="M20,0v485h445V0H20z M435,30v90H50V30H435z M50,455V150h385v305H50z"/>
	<rect x="75" y="60" width="90.333" height="30"/>
	<rect x="370" y="60" width="40" height="30"/>
	<rect x="310" y="60" width="40" height="30"/>
</g>
<g>
</g>
<g>
</g>
<g>
</g>
<g>
</g>
<g>
</g>
<g>
</g>
<g>
</g>
<g>
</g>
<g>
</g>
<g>
</g>
<g>
</g>
<g>
</g>
<g>
</g>
<g>
</g>
<g>
</g>
</svg>
