<svg id="Lager_1" data-name="Lager 1" xmlns="http://www.w3.org/2000/svg" viewBox="0 0 188.15 76.64"><defs><style>.cls-1{fill:none;stroke-width:2px;}.cls-1,.cls-3{stroke:#1d1d1b;stroke-miterlimit:10;}.cls-2{font-size:48px;font-family:Bauhaus93, "Bauhaus 93";}.cls-2,.cls-3{fill:#1d1d1b;}.cls-3{stroke-width:0.5px;}</style></defs><path class="cls-1" d="M109.82,26.05a5.82,5.82,0,1,1,11.64,0v5.79h10.12c-1.07-5.72-2.77-13.74-3.36-16a6.18,6.18,0,0,0-6-4.65H88.73a6.15,6.15,0,0,0-6.2,6.09V31.84h27.29ZM91.69,27.26V20.2h12.59v7.06Z" transform="translate(-3.58 -10.23)"/><path class="cls-1" d="M98,40.77a3,3,0,1,0,3,3A3,3,0,0,0,98,40.77Z" transform="translate(-3.58 -10.23)"/><path class="cls-1" d="M137.68,40.81h-6.05a9.23,9.23,0,0,0,.52-1.11,5.05,5.05,0,0,0,.34-2,21.93,21.93,0,0,0-.38-2.81H121.46v5.91H109.82V34.9H82.53v2.74a6.27,6.27,0,0,0,6.2,6.22h3a6.27,6.27,0,1,1,12.54,0h29.59v1.41a1.44,1.44,0,1,0,2.87,0V43.86h1a1.53,1.53,0,0,0,0-3Z" transform="translate(-3.58 -10.23)"/><text class="cls-2" transform="translate(8.43 64.64)">Camper</text><text x="-3.58" y="-10.23"/><path class="cls-1" d="M181.91,32h-5.24l-4.2-8a1.37,1.37,0,0,0-1.2-.72h-3.68v-.65h.77a1.34,1.34,0,0,0,1.35-1.34V16.87a1.34,1.34,0,0,0-1.35-1.35H154a1.35,1.35,0,0,0-1.35,1.35V21.3A1.35,1.35,0,0,0,154,22.64h.77v.65h-3.28a1.35,1.35,0,0,0-1.17.68l-5,8.73a1.32,1.32,0,0,0-.18.67V42.1a1.34,1.34,0,0,0,1.35,1.35h5.22a4.87,4.87,0,0,0,9.35,0h4.79a4.88,4.88,0,0,0,9.36,0h6.66a1.34,1.34,0,0,0,1.34-1.35V33.37A1.34,1.34,0,0,0,181.91,32Zm-24.42-9.38h7.41v.65h-7.41v-.65Zm-7.94,18.11h-1.68V39.08h1.68Zm-.7-8.73,2.81-4.92L155.27,32Zm5.4,10.08A2.18,2.18,0,0,1,158.6,42v.12h0A2.18,2.18,0,0,1,154.25,42.1ZM161.42,32h-2.8l-4.44-6h7.24v6Zm3.67,7.06h-1.74a1.35,1.35,0,1,1,0-2.69h1.74a1.35,1.35,0,0,1,0,2.69Zm5.48,5.2A2.17,2.17,0,1,1,172.74,42a.41.41,0,0,1,0,.11h0A2.19,2.19,0,0,1,170.57,44.28ZM164.12,32V26h6.34l3.17,6Zm16.44,4.37h-1.67V34.72h1.67Z" transform="translate(-3.58 -10.23)"/><rect class="cls-3" x="58.3" y="5.52" width="11.77" height="1.21" rx="0.39"/><rect class="cls-3" x="58.3" y="26.36" width="11.77" height="1.21" rx="0.39"/><rect class="cls-3" x="51.25" y="15.94" width="11.77" height="1.21" rx="0.39"/></svg>