<svg id="Lager_1" data-name="Lager 1" xmlns="http://www.w3.org/2000/svg" viewBox="0 0 188.15 73.29"><defs><style>.cls-1,.cls-2{fill:none;}.cls-1,.cls-4{stroke:#000;stroke-miterlimit:10;}.cls-1{stroke-width:2px;}.cls-3{isolation:isolate;}.cls-4{stroke-width:0.5px;}</style></defs><path class="cls-1" d="M109.82,26.05a5.82,5.82,0,1,1,11.64,0v5.79h10.12c-1.07-5.73-2.77-13.74-3.36-16a6.19,6.19,0,0,0-6-4.65H88.73a6.15,6.15,0,0,0-6.2,6.09V31.84h27.29ZM91.69,27.26V20.2h12.6v7.06Z" transform="translate(-3.58 -10.23)"/><path class="cls-1" d="M98,40.77a3,3,0,1,0,3,3A3,3,0,0,0,98,40.77Z" transform="translate(-3.58 -10.23)"/><path class="cls-1" d="M137.68,40.81h-6.05a7.91,7.91,0,0,0,.52-1.11,4.86,4.86,0,0,0,.35-2,26.31,26.31,0,0,0-.38-2.81H121.47v5.92H109.83V34.9H82.53v2.74a6.27,6.27,0,0,0,6.2,6.23h3a6.27,6.27,0,0,1,12.54,0h29.59v1.41a1.43,1.43,0,1,0,2.86,0V43.87h.95a1.53,1.53,0,0,0,0-3.06Z" transform="translate(-3.58 -10.23)"/><rect class="cls-2" y="29.46" width="188.15" height="38.35"/><g class="cls-3"><path d="M36.85,59.24l10,.26q-1,7.73-5.36,12a15.73,15.73,0,0,1-11.4,4.22,16.31,16.31,0,0,1-12-4.79A16.12,16.12,0,0,1,13.28,59a16.25,16.25,0,0,1,4.91-12,16.51,16.51,0,0,1,12.1-4.88A15.93,15.93,0,0,1,42.1,46.87a18.69,18.69,0,0,1,4.65,9.21l-10.2.68q-1.71-5.25-6.49-5.25a6.59,6.59,0,0,0-5,2.11,7.51,7.51,0,0,0-2,5.36A7.21,7.21,0,0,0,25,64.17a6.46,6.46,0,0,0,4.92,2,6.48,6.48,0,0,0,4.81-1.8A8.15,8.15,0,0,0,36.85,59.24Z" transform="translate(-3.58 -10.23)"/><path d="M63.64,66.11v9.07A12.34,12.34,0,0,1,52.89,71.9a12.37,12.37,0,0,1,0-17.32A11.79,11.79,0,0,1,61.56,51q5.67,0,8.94,3.31t3.27,9.06V74.87H65V64a4.54,4.54,0,0,0-.9-3A3,3,0,0,0,61.68,60a3.45,3.45,0,0,0-2.49,5.79,3.12,3.12,0,0,0,2.32.94A4,4,0,0,0,63.64,66.11Z" transform="translate(-3.58 -10.23)"/><path d="M110.94,74.87h-8.76V62.26a4.62,4.62,0,0,0-.31-2,1.13,1.13,0,0,0-1.1-.56c-1,0-1.48.86-1.48,2.6V74.87H90.53V62.26a4.44,4.44,0,0,0-.32-2,1.15,1.15,0,0,0-1.11-.56c-1,0-1.46.86-1.46,2.6V74.87H78.88V60.48a9.29,9.29,0,0,1,2.65-6.69A8.58,8.58,0,0,1,88,51a9.38,9.38,0,0,1,7,3.28Q98.38,51,101.82,51a8.7,8.7,0,0,1,7,3.18c1.39,1.66,2.08,4.07,2.08,7.25Z" transform="translate(-3.58 -10.23)"/><path d="M124.32,83.52h-8.76V64a13.22,13.22,0,0,1,2.81-8.74,11.44,11.44,0,0,1,4.11-3.09,12.53,12.53,0,0,1,13.94,2.36A11.62,11.62,0,0,1,140,63.18a11.79,11.79,0,0,1-3.56,8.58A11.48,11.48,0,0,1,128,75.37c-.53,0-1.31-.06-2.34-.17V65.54a3.45,3.45,0,0,0,2.16.87,3.11,3.11,0,0,0,2.33-1,3.3,3.3,0,0,0,1-2.39,3.12,3.12,0,0,0-1-2.35,3.33,3.33,0,0,0-2.41-1q-3.37,0-3.38,4.66Z" transform="translate(-3.58 -10.23)"/><path d="M166.82,64.61H153.53a6.22,6.22,0,0,1-.31-1.85,6.5,6.5,0,0,1,.42-2.3h4.46a2.75,2.75,0,0,0-2.93-2.6,3.15,3.15,0,0,0-2.67,1.39,5.85,5.85,0,0,0-1,3.58,6.28,6.28,0,0,0,1,3.68,3.07,3.07,0,0,0,2.61,1.4,3.52,3.52,0,0,0,2.54-1.31l5,6a12.26,12.26,0,0,1-7.76,2.74,11.94,11.94,0,0,1-8.74-3.49,12.33,12.33,0,0,1,0-17.32A12,12,0,0,1,154.91,51a11.82,11.82,0,0,1,12,12C166.91,63.31,166.88,63.86,166.82,64.61Z" transform="translate(-3.58 -10.23)"/><path d="M183.27,51.27v9.38a3.38,3.38,0,0,0-1.66-.52q-2.4,0-2.4,3.66V74.87h-8.76V62.1A11.45,11.45,0,0,1,173.21,54a9.56,9.56,0,0,1,7.39-3A18.17,18.17,0,0,1,183.27,51.27Z" transform="translate(-3.58 -10.23)"/></g><path class="cls-1" d="M181.91,32h-5.24l-4.2-8a1.35,1.35,0,0,0-1.19-.72H167.6v-.64h.77a1.35,1.35,0,0,0,1.35-1.35V16.87a1.35,1.35,0,0,0-1.35-1.35H154a1.35,1.35,0,0,0-1.35,1.35V21.3A1.35,1.35,0,0,0,154,22.65h.77v.64h-3.28a1.35,1.35,0,0,0-1.17.68l-5,8.73a1.32,1.32,0,0,0-.18.67V42.1a1.35,1.35,0,0,0,1.35,1.35h5.22a4.87,4.87,0,0,0,9.36,0h4.79a4.88,4.88,0,0,0,9.36,0h6.66a1.35,1.35,0,0,0,1.35-1.35V33.37A1.37,1.37,0,0,0,181.91,32Zm-24.42-9.38h7.41v.64h-7.41v-.64Zm-7.94,18.11h-1.67V39.08h1.67Zm-.7-8.73,2.81-4.92L155.28,32Zm5.4,10.08A2.18,2.18,0,0,1,158.6,42v.12h0A2.18,2.18,0,0,1,154.25,42.1ZM161.42,32h-2.8l-4.44-6h7.24v6Zm3.67,7.06h-1.74a1.35,1.35,0,1,1,0-2.7h1.74a1.35,1.35,0,0,1,0,2.7Zm5.48,5.2A2.18,2.18,0,1,1,172.74,42v.11h0A2.18,2.18,0,0,1,170.57,44.28ZM164.12,32V26h6.34l3.17,6Zm16.44,4.37h-1.67V34.72h1.67Z" transform="translate(-3.58 -10.23)"/><path class="cls-4" d="M73.26,17h-11a.39.39,0,0,1-.39-.39v-.42a.39.39,0,0,1,.39-.39h11a.39.39,0,0,1,.39.39v.42A.39.39,0,0,1,73.26,17Z" transform="translate(-3.58 -10.23)"/><path class="cls-4" d="M73.26,37.8h-11a.39.39,0,0,1-.39-.39V37a.39.39,0,0,1,.39-.39h11a.39.39,0,0,1,.39.39v.42A.39.39,0,0,1,73.26,37.8Z" transform="translate(-3.58 -10.23)"/><path class="cls-4" d="M66.21,27.38h-11a.39.39,0,0,1-.39-.39v-.42a.39.39,0,0,1,.39-.39h11a.39.39,0,0,1,.39.39V27A.38.38,0,0,1,66.21,27.38Z" transform="translate(-3.58 -10.23)"/></svg>