<svg width="60" height="60" viewBox="0 0 60 60" fill="none" xmlns="http://www.w3.org/2000/svg">
<path d="M41.25 15H39.375V3.75H35.625V15H24.375V3.75H20.625V15H18.75C17.7554 15 16.8016 15.3951 16.0984 16.0984C15.3951 16.8016 15 17.7554 15 18.75V30C15.0059 33.6506 16.3417 37.1739 18.7575 39.9109C21.1732 42.6478 24.5034 44.4108 28.125 44.8701V56.25H31.875V44.8701C35.4966 44.4108 38.8268 42.6478 41.2425 39.9109C43.6583 37.1739 44.9941 33.6506 45 30V18.75C45 17.7554 44.6049 16.8016 43.9016 16.0984C43.1984 15.3951 42.2446 15 41.25 15ZM41.25 30C41.25 32.9837 40.0647 35.8452 37.955 37.955C35.8452 40.0647 32.9837 41.25 30 41.25C27.0163 41.25 24.1548 40.0647 22.045 37.955C19.9353 35.8452 18.75 32.9837 18.75 30V18.75H41.25V30Z" fill="black"/>
</svg>
