<svg width="60" height="60" viewBox="0 0 60 60" fill="none" xmlns="http://www.w3.org/2000/svg">
<path d="M56.2498 20.0252L52.4998 8.77523C52.3693 8.38714 52.1154 8.05242 51.7768 7.82219C51.4382 7.59197 51.0336 7.47889 50.6248 7.50023H9.37475C8.96588 7.47889 8.56126 7.59197 8.22269 7.82219C7.88412 8.05242 7.63021 8.38714 7.49975 8.77523L3.74975 20.0252C3.72274 20.2243 3.72274 20.4261 3.74975 20.6252V31.8752C3.74975 32.3725 3.9473 32.8494 4.29893 33.2011C4.65056 33.5527 5.12747 33.7502 5.62475 33.7502H7.49975V52.5002H11.2498V33.7502H22.4998V52.5002H52.4998V33.7502H54.3748C54.872 33.7502 55.3489 33.5527 55.7006 33.2011C56.0522 32.8494 56.2498 32.3725 56.2498 31.8752V20.6252C56.2768 20.4261 56.2768 20.2243 56.2498 20.0252ZM48.7498 48.7502H26.2498V33.7502H48.7498V48.7502ZM52.4998 30.0002H44.9998V22.5002H41.2498V30.0002H31.8748V22.5002H28.1248V30.0002H18.7498V22.5002H14.9998V30.0002H7.49975V20.9252L10.7248 11.2502H49.2748L52.4998 20.9252V30.0002Z" fill="black"/>
</svg>
