<svg width="60" height="60" viewBox="0 0 60 60" fill="none" xmlns="http://www.w3.org/2000/svg">
<path fill-rule="evenodd" clip-rule="evenodd" d="M38.764 14.5832C37.9399 15.8166 37.5 17.2666 37.5 18.75C37.5021 20.7385 38.2929 22.6449 39.699 24.051C41.1051 25.4571 43.0115 26.2479 45 26.25C46.4834 26.25 47.9334 25.8101 49.1668 24.986C50.4001 24.1619 51.3614 22.9906 51.9291 21.6201C52.4968 20.2497 52.6453 18.7417 52.3559 17.2868C52.0665 15.832 51.3522 14.4956 50.3033 13.4467C49.2544 12.3978 47.918 11.6835 46.4632 11.3941C45.0083 11.1047 43.5003 11.2532 42.1299 11.8209C40.7594 12.3886 39.5881 13.3499 38.764 14.5832ZM41.882 20.8334C41.4699 20.2167 41.25 19.4917 41.25 18.75C41.2511 17.7558 41.6466 16.8026 42.3496 16.0996C43.0526 15.3966 44.0058 15.0011 45 15C45.7417 15 46.4667 15.2199 47.0834 15.632C47.7001 16.044 48.1807 16.6297 48.4646 17.3149C48.7484 18.0002 48.8226 18.7542 48.6779 19.4816C48.5332 20.209 48.1761 20.8772 47.6516 21.4017C47.1272 21.9261 46.459 22.2833 45.7316 22.4279C45.0042 22.5726 44.2502 22.4984 43.5649 22.2146C42.8797 21.9307 42.294 21.4501 41.882 20.8334ZM43.125 32.9736L26.7994 16.648C26.2783 16.1237 25.6584 15.7082 24.9755 15.4253C24.2927 15.1424 23.5605 14.9979 22.8214 15H7.5V18.75H22.8214C23.0678 18.7493 23.312 18.7974 23.5397 18.8917C23.7674 18.986 23.9742 19.1246 24.1479 19.2994L29.2236 24.375L18.75 34.8486L21.4014 37.5L31.875 27.0265L40.4736 35.625L43.125 32.9736ZM56.25 48.7504H52.5C51.0448 48.7633 49.6072 48.4325 48.304 47.7851C47.0008 47.1376 45.8687 46.1917 45 45.0242C44.1223 46.1821 42.9885 47.1211 41.6873 47.7675C40.3861 48.414 38.9529 48.7504 37.5 48.7504C36.0471 48.7504 34.6139 48.414 33.3127 47.7675C32.0115 47.1211 30.8777 46.1821 30 45.0242C29.1223 46.1821 27.9885 47.1211 26.6873 47.7675C25.3861 48.414 23.9529 48.7504 22.5 48.7504C21.0471 48.7504 19.6139 48.414 18.3127 47.7675C17.0115 47.1211 15.8777 46.1821 15 45.0242C14.1313 46.1917 12.9992 47.1376 11.696 47.7851C10.3928 48.4325 8.95515 48.7633 7.5 48.7504H3.75V45.0004H7.5C8.77856 44.9252 10.0058 44.4711 11.0253 43.6959C12.0449 42.9207 12.8105 41.8595 13.2247 40.6476C13.3433 40.2721 13.5804 39.9452 13.9005 39.7158C14.2205 39.4865 14.6063 39.367 15 39.3754C15.3931 39.3773 15.7757 39.5019 16.0946 39.7318C16.4135 39.9616 16.6527 40.2852 16.7788 40.6575C17.194 41.8673 17.9597 42.9263 18.9785 43.6996C19.9973 44.473 21.2231 44.9258 22.5 45.0004C23.7786 44.9252 25.0058 44.4711 26.0253 43.6959C27.0449 42.9207 27.8105 41.8595 28.2248 40.6476C28.3482 40.2751 28.5865 39.9514 28.9055 39.7228C29.2244 39.4942 29.6076 39.3726 30 39.3754C30.3931 39.3773 30.7757 39.5019 31.0946 39.7318C31.4135 39.9616 31.6527 40.2852 31.7788 40.6575C32.194 41.8673 32.9597 42.9263 33.9785 43.6996C34.9973 44.473 36.2231 44.9258 37.5 45.0004C38.7786 44.9252 40.0058 44.4711 41.0253 43.6959C42.0449 42.9207 42.8105 41.8595 43.2248 40.6476C43.351 40.2759 43.5908 39.9532 43.9103 39.725C44.2297 39.4968 44.6128 39.3746 45.0053 39.3757C45.3979 39.3768 45.7803 39.5011 46.0985 39.7311C46.4166 39.9611 46.6546 40.2851 46.7788 40.6575C47.194 41.8673 47.9597 42.9263 48.9785 43.6996C49.9973 44.473 51.2231 44.9258 52.5 45.0004H56.25V48.7504Z" fill="black"/>
</svg>
