<svg width="62" height="65" viewBox="0 0 62 65" fill="none" xmlns="http://www.w3.org/2000/svg">
<g filter="url(#filter0_d_55_153)">
<path fill-rule="evenodd" clip-rule="evenodd" d="M42.25 15H53.5C54.4942 15.0011 55.4474 15.3966 56.1504 16.0996C56.8534 16.8026 57.2489 17.7558 57.25 18.75V37.5C57.2505 41.8213 55.7583 46.0101 53.0257 49.3577C50.2932 52.7053 46.488 55.0062 42.2542 55.871C38.0203 56.7359 33.6177 56.1116 29.7912 54.1038C25.9647 52.096 22.9492 48.8279 21.2551 44.8526C16.7077 44.3001 12.5195 42.1037 9.47933 38.6773C6.43919 35.2508 4.75711 30.8307 4.75 26.25V7.5C4.75114 6.50579 5.1466 5.55262 5.84961 4.84961C6.55262 4.1466 7.50579 3.75114 8.5 3.75H38.5C39.4942 3.75114 40.4474 4.1466 41.1504 4.84961C41.8534 5.55262 42.2489 6.50579 42.25 7.5V15ZM8.5 7.5V26.25C8.50583 29.6279 9.65052 32.9052 11.7491 35.5523C13.8476 38.1993 16.7774 40.0613 20.065 40.8375C19.8602 39.7367 19.7548 38.6197 19.75 37.5V18.75C19.7511 17.7558 20.1466 16.8026 20.8496 16.0996C21.5526 15.3966 22.5058 15.0011 23.5 15H38.5V7.5H8.5ZM49.1066 48.1066C51.9196 45.2936 53.5 41.4782 53.5 37.5V18.75H23.5V37.5C23.5 41.4782 25.0804 45.2936 27.8934 48.1066C30.7064 50.9196 34.5218 52.5 38.5 52.5C42.4782 52.5 46.2936 50.9196 49.1066 48.1066ZM31 26.2502C30.2583 26.2502 29.5333 26.4701 28.9166 26.8822C28.2999 27.2942 27.8193 27.8799 27.5355 28.5651C27.2516 29.2503 27.1774 30.0043 27.3221 30.7318C27.4668 31.4592 27.8239 32.1274 28.3484 32.6518C28.8728 33.1763 29.541 33.5334 30.2684 33.6781C30.9958 33.8228 31.7498 33.7486 32.4351 33.4647C33.1203 33.1809 33.706 32.7003 34.118 32.0836C34.5301 31.4669 34.75 30.7419 34.75 30.0002C34.7549 29.5064 34.6612 29.0166 34.4745 28.5594C34.2877 28.1022 34.0117 27.6869 33.6625 27.3377C33.3133 26.9885 32.898 26.7125 32.4408 26.5257C31.9836 26.339 31.4938 26.2453 31 26.2502ZM43.9166 26.8822C44.5333 26.4701 45.2583 26.2502 46 26.2502C46.4938 26.2453 46.9836 26.339 47.4408 26.5257C47.898 26.7125 48.3133 26.9885 48.6625 27.3377C49.0117 27.6869 49.2877 28.1022 49.4745 28.5594C49.6612 29.0166 49.7549 29.5064 49.75 30.0002C49.75 30.7419 49.5301 31.4669 49.118 32.0836C48.706 32.7003 48.1203 33.1809 47.4351 33.4647C46.7498 33.7486 45.9958 33.8228 45.2684 33.6781C44.541 33.5334 43.8728 33.1763 43.3484 32.6518C42.8239 32.1274 42.4668 31.4592 42.3221 30.7318C42.1774 30.0043 42.2516 29.2503 42.5355 28.5651C42.8193 27.8799 43.2999 27.2942 43.9166 26.8822ZM32.2933 45.3178C34.2018 46.3415 36.3342 46.8764 38.5 46.8746C40.6657 46.8764 42.7982 46.3415 44.7067 45.3178C46.6152 44.2941 48.2404 42.8135 49.4369 41.0083L46.3131 38.9319C45.4578 40.2211 44.2967 41.2786 42.9335 42.0102C41.5702 42.7417 40.0471 43.1245 38.5 43.1245C36.9529 43.1245 35.4298 42.7417 34.0665 42.0102C32.7032 41.2786 31.5422 40.2211 30.6869 38.9319L27.5631 41.0083C28.7596 42.8135 30.3847 44.2941 32.2933 45.3178Z" fill="black"/>
</g>
<defs>
<filter id="filter0_d_55_153" x="-3" y="0" width="68" height="68" filterUnits="userSpaceOnUse" color-interpolation-filters="sRGB">
<feFlood flood-opacity="0" result="BackgroundImageFix"/>
<feColorMatrix in="SourceAlpha" type="matrix" values="0 0 0 0 0 0 0 0 0 0 0 0 0 0 0 0 0 0 127 0" result="hardAlpha"/>
<feOffset dy="4"/>
<feGaussianBlur stdDeviation="2"/>
<feComposite in2="hardAlpha" operator="out"/>
<feColorMatrix type="matrix" values="0 0 0 0 0 0 0 0 0 0 0 0 0 0 0 0 0 0 0.25 0"/>
<feBlend mode="normal" in2="BackgroundImageFix" result="effect1_dropShadow_55_153"/>
<feBlend mode="normal" in="SourceGraphic" in2="effect1_dropShadow_55_153" result="shape"/>
</filter>
</defs>
</svg>
