<svg width="60" height="60" viewBox="0 0 60 60" fill="none" xmlns="http://www.w3.org/2000/svg">
<path fill-rule="evenodd" clip-rule="evenodd" d="M30 9.375C39.8245 9.375 49.2542 13.242 56.25 20.1399V20.1437L53.5976 22.7964C47.3034 16.596 38.8218 13.1219 29.9865 13.1254C21.1512 13.1289 12.6723 16.6097 6.38306 22.8152L3.75 20.1821V20.1399C10.7458 13.242 20.1755 9.375 30 9.375ZM11.6794 28.1111L14.3299 30.7614C18.5148 26.6703 24.1337 24.378 29.9861 24.3745C35.8386 24.371 41.4603 26.6565 45.6501 30.7427L48.3 28.0927C43.4077 23.3026 36.8324 20.6215 29.9856 20.625C23.1387 20.6285 16.5661 23.3163 11.6788 28.1115L11.6794 28.1111ZM19.6314 36.0628L19.6313 36.0626V36.063L19.6314 36.0628ZM19.6314 36.0628L22.2818 38.7122C24.3595 36.7334 27.118 35.6283 29.9872 35.625C32.8565 35.6218 35.6174 36.7207 37.6997 38.6948L40.35 36.0443C37.5652 33.366 33.8506 31.8715 29.9868 31.875C26.1232 31.8785 22.4114 33.3796 19.6314 36.0628ZM33.75 46.875C33.75 48.9461 32.0711 50.625 30 50.625C27.9289 50.625 26.25 48.9461 26.25 46.875C26.25 44.8039 27.9289 43.125 30 43.125C32.0711 43.125 33.75 44.8039 33.75 46.875Z" fill="black"/>
</svg>
