<svg width="50" height="50" viewBox="0 0 50 50" fill="none" xmlns="http://www.w3.org/2000/svg">
<path d="M25 3.125C20.6735 3.125 16.4442 4.40795 12.8469 6.8116C9.24959 9.21526 6.44581 12.6317 4.79014 16.6288C3.13448 20.6259 2.70128 25.0243 3.54533 29.2676C4.38938 33.5109 6.47277 37.4087 9.53205 40.468C12.5913 43.5272 16.4891 45.6106 20.7324 46.4547C24.9757 47.2987 29.3741 46.8655 33.3712 45.2099C37.3683 43.5542 40.7848 40.7504 43.1884 37.1531C45.5921 33.5558 46.875 29.3265 46.875 25C46.875 19.1984 44.5703 13.6344 40.468 9.53204C36.3656 5.42968 30.8016 3.125 25 3.125ZM43.75 23.4375H34.375C34.1926 17.6829 32.7018 12.0455 30.0156 6.95312C33.7165 7.96547 37.0178 10.0888 39.4738 13.0366C41.9298 15.9844 43.4224 19.6147 43.75 23.4375ZM25 43.75C24.6514 43.7734 24.3017 43.7734 23.9531 43.75C20.7161 38.5878 18.9196 32.6533 18.75 26.5625H31.25C31.0946 32.6489 29.3143 38.5831 26.0938 43.75C25.7296 43.7756 25.3641 43.7756 25 43.75ZM18.75 23.4375C18.9055 17.3511 20.6857 11.4169 23.9063 6.25C24.602 6.17182 25.3043 6.17182 26 6.25C29.2536 11.4075 31.0664 17.3423 31.25 23.4375H18.75ZM19.9375 6.95312C17.2677 12.0494 15.7929 17.6866 15.625 23.4375H6.25001C6.57767 19.6147 8.07023 15.9844 10.5262 13.0366C12.9823 10.0888 16.2835 7.96547 19.9844 6.95312H19.9375ZM6.32814 26.5625H15.7031C15.8662 32.3121 17.3356 37.9493 20 43.0469C16.3107 42.0237 13.0231 39.8956 10.579 36.9487C8.1349 34.0018 6.65149 30.3774 6.32814 26.5625ZM30.0156 43.0469C32.7018 37.9544 34.1926 32.3171 34.375 26.5625H43.75C43.4224 30.3853 41.9298 34.0156 39.4738 36.9634C37.0178 39.9112 33.7165 42.0345 30.0156 43.0469Z" fill="black"/>
</svg>
